<mxfile host="app.diagrams.net" modified="2021-02-25T07:19:33.296Z" agent="5.0 (Macintosh; Intel Mac OS X 10_14_6) AppleWebKit/537.36 (KHTML, like Gecko) Chrome/88.0.4324.146 Safari/537.36" etag="QeJ-aKomEC32_wMB0Ikt" version="14.4.3" type="github">
  <diagram id="pEbqLUpxIVuzpO0PTzrP" name="Page-1">
    <mxGraphModel dx="946" dy="591" grid="1" gridSize="10" guides="1" tooltips="1" connect="1" arrows="1" fold="1" page="1" pageScale="1" pageWidth="827" pageHeight="1169" math="0" shadow="0">
      <root>
        <mxCell id="0" />
        <mxCell id="1" parent="0" />
        <mxCell id="ijF5cBioTtc_Avgv8xnH-52" value="" style="rounded=0;whiteSpace=wrap;html=1;fillColor=#dae8fc;strokeColor=none;" vertex="1" parent="1">
          <mxGeometry x="50" y="360" width="710" height="110" as="geometry" />
        </mxCell>
        <mxCell id="ijF5cBioTtc_Avgv8xnH-50" value="" style="rounded=0;whiteSpace=wrap;html=1;fillColor=#d5e8d4;strokeColor=none;" vertex="1" parent="1">
          <mxGeometry x="50" y="200" width="710" height="80" as="geometry" />
        </mxCell>
        <mxCell id="ijF5cBioTtc_Avgv8xnH-48" value="" style="rounded=0;whiteSpace=wrap;html=1;fillColor=#e1d5e7;strokeColor=none;" vertex="1" parent="1">
          <mxGeometry x="50.75" y="139" width="710" height="50" as="geometry" />
        </mxCell>
        <mxCell id="ijF5cBioTtc_Avgv8xnH-46" value="" style="rounded=0;whiteSpace=wrap;html=1;fillColor=#f8cecc;strokeColor=none;" vertex="1" parent="1">
          <mxGeometry x="50.75" y="80" width="710" height="50" as="geometry" />
        </mxCell>
        <mxCell id="ijF5cBioTtc_Avgv8xnH-2" value="数据源管理" style="rounded=0;whiteSpace=wrap;html=1;strokeColor=none;" vertex="1" parent="1">
          <mxGeometry x="140" y="369.97" width="610" height="20.03" as="geometry" />
        </mxCell>
        <mxCell id="ijF5cBioTtc_Avgv8xnH-14" value="" style="shape=image;verticalLabelPosition=bottom;labelBackgroundColor=#ffffff;verticalAlign=top;aspect=fixed;imageAspect=0;image=data:image/png,iVBORw0KGgoAAAANSUhEUgAAAHgAAAAuCAYAAADjs904AAAMN0lEQVR4Ae2cCZAVxRnH//GKVw4rxlxqIBrR3em3C2+nZ3dBXJUKCXgbj8Ibr0ppyohHygRTohVvrIp4oSkhag6lNF6J4rVoVIgSYWfe24tlBURwkeVYA7hcX+o/O7POzpv33rw9SKUyUzU1V8/XM99v+uuvv+4eYBAXAXZbmE5/zTGsGxxV9WpjpfVDOeOM3QX40iBmk4ja1Rqor6vboyGlhzuG/rmtzA8cpXc4Sout9JqM0jOalK6pHzZs7139XEl+A9SA1NXtwRKbVdZFjrKaCDajtBCuv3rH62xlzno/VTXiw7q6vZMSPUDFD/XtC9PpPbNl6UMdwzyzwTDnEWJWWb1Qfbj+ltebUtWSUXqFXW7dbCsrveTww7881M+ZyC9RA6xP30nVHtRQXnW2beh5GWVtIzgfZLFtY8oSrhmll2dU1RVthnmIpNN7lvgYSfKh0IBjmIc4hj7BNqpetJWWlp4SGRtuED4/ilYXtPmWrcxzHKP2MJr7oXjuRGYRDbCOzZRbx2aUftZR+rPmVHVBcxwEWWyfH4mt9LZGZdU3KfNClugij5NcHiwN2GrMAZnyWrPBMG+1ld7YVlFTAti02Codq3Szfm5NVcvyyhpxDP18o7ImNKSsgxNHbLBIhuSwOeMY1XV2edX0jNItLGWsN4uVxp7rVeKoKmkaPVFaxk8SJ2XFBs37W1M1zGdjg6GfcgzzrAWG9a3Q4yWH/dXAwnR63yZVoxzDujaT0suWVFQLzXE8sD2ltVH/SNomXSHrXqmXLW3tsuyqG6V57EnipGrFNkbFkkVvvLnng9pmG/qhbEV6zHI15oD+vldyHwDH0FW2qv6lrfS7dIDie8am2MZIadTjpH3yNbLmiadl+/r10rvs3CEb6t+WZdf9VlqO/6k4FbWxIPOjoun2QLc5hr6zUZnj6svK9k+AlagBx9AX20rPd0pq8vSY4szIsdJ6ymTpeOwp2bq2s5dreGfn9m3S+dLr0nz86eIoMzZkgvaaVZI1dKtdbk7NlpnfLvKKxwC4ZADr+QBSXh4jAJwTkjUKQNDj3w1AdShNVP7nAjgVwHEAKLfYx8rw7mEx5DIvyj4ZgAXgm330k1GmH4SIoXhTHKNSmmsnyvIbbpd1r8yTbRu7wjz7HHevXi2r73tUlk66Uhqt8THy+CIK5lcPPaXZrS662FTr8wK5B38GIANYdwCY6on9GYB/h2TdCmDfQLZ7Abg3lKZQ/p8BaAHwdwBXFQDNj4gfWyFZ4WsdAP4B4DcA9nOf0TbMrb4iC21Zh2ZGjZVlU6bJhrcWyNbOdX1Ahg+2dX0mHY/PkZYTz5ds+ljX+aIDViiPQte8SNkax9ATA8qN2p1dolLCSuoCcL0nmKWDSgumuSkC8N2hNMH0hfbXALgjJM9/JwKe1E+5GwHcCWAvFAPMOtZJaVl25VRZ+9zLBU0xIW9f3yWfznlBll58nWTNcW4dHWWWe5yueE0pgi8B8BP9VIoP4nMAN3havhzA+pC8W0JAWIL7C5h5skRfCCAc0RsIYMpd65rsYoBbT7pAOl+ul+5P1ojIznBBzTneMO9daayZII4bm84tsS5Yo0KWXnqtLL3wamE9Xqjk+tdKAEw4bwF4M7C+4b3wzgCs7Z6prA+ko3l7ySs5ZExr8TQA3v86gHkALgAQjKNHAWY+7QD+COBJT8YCAFsC+fsfFLfM93t+0fW2UYApNwPgYQAPeussAKsi5DLtlAIl2JRM5Rj56NZ7cyAWOtH5/KtuiffBfLFNu+dbJ54nq+6bJd2fdMjK2+/3ABd3vEoATCfjB6F1OIDXALB+9RXLuvVXAHjNT0+nZhiAr3tKZmSNTtFPAIwHMAHA4QDoWPlLFGDm8ycAdAi/68HjfWMA/D6iXt8E4Gj07TePArwNAIFS5oHeylhBhffxBd+P73l/YcAjx8rH9zxciGfOtc4XXxOnItx+NqXp6BOl47GnZUvbh7Jj8xb3viEC7Cs+vH02BJh1LevYQsspAOYC+BeA9wAsBnBpjBJMRT+SR/B3ALwMIGhNCOMXIe88H+AHAOweIfsaAKx7/Q+Y2z8UBzx9Zg7ETS1tsuLG22Vz69Kca7mATcmmj5NVM2fLju7uPulX3jYkJTji3d1Tz0UAvixfYu88PwA6QkGlTYtRBxMwS2q+hTJY9wblPhqqh/MBpmmm1QgvfNbOkMyZJQHesrRdVky9Q5qPOVUyFZZ0vb+oDzAeRAI2x8map/6ak/Z/BHB/vOhigPlhfRqCQV8gCC4f4PtDVYQP+iEA3QGZtBBTiwO+52HZ2d0tK2/7nTSNniCZCjde7HrHXe8vzoGWF/CTz+Sk/T8GfDaA1QEYLMl0noLOWxRgOoYvAGAsgD4BV+7PBLAuJI9V0PEFAGvJVI6W1hPOkyVnXu7uf+EwaTe2nAB2C08+J6uQiT4NwMchIPS6g+PWogDzQ9jqOWk08VzpLPJc0NzzQ7jZDXYUayb1NHdye5PY3EkA9xswQ5ZhwB/FBBwEmW//cc/DRsESHCyx4f0EsF/1ufVmONBRrA4+PQLwh4MImPUv29+HJIB7OUXu9DdUWQxwVB3cGKMOZollpG2DF2FjlI0r61u2kYMlms/w6wRwJNfek0MFmHLDXjSjWXGcLD/Q8Q3PDB/k9SL9JSJSNj8B3MsycmeoADOCFg5KsBcsTjOJgY5w3JoPzy7O5lApXpcAjuTae3IoABMOO0TCJpVdfPSc/SXKi+Y9+QIdhwJYGALcnQD21Rm9HQjgqFAlTTAdLDaJgvUlmzUnhQIY+QDnC1VyIEJTSG5XAjgarH92IICfAXCE1xHAzgCO+mD344oQBIImcI7yCE7SiwJMx4mmnOb4SABHASjz8pjuOVvBDyebAPZRRm/7C5jNFMaF2UnBDooGAGznhjsYfBgzIkZ2RAHm/Z8A+CeA+d7KbsgloTi7L/eR/y7gOx4ciu7CaFRAfzsb+hOL9hUcZ9sKwIh46CjAceT5aRgK/fHAAH/g5MSX48ai2RPVfsn1kok50rKE/uAIXbmnGMP1X55bhvhoMgst7BoMN2eiepNoHoOy4+6/40Lo27/sPw8Bc8BfXFnBdDT5UwDsA1uZ/nCYWCMr/IgWI1mdc+tFduzoAzkv4DnPuum2dnbK+vp3ZMlZjG/HH0brDb7fkEmZJ/oaKHHLyA4DAgTLlaZuchEZHErDCBM75HnPZm+QwD6B+9i04UA8XvNlR22ZN832cgA0qxyVMTIgJ7xLwGd6gY0oecFzvmyaavY105HrGZSw2DDvdpRexRkMXimJCdqU5rrTZNnV02T9m+/2Qu782+uhDn/THZu1cvoMWTVjlrSeeok7eM8duhOYR+x/OOFtYOrp546yHs+W13BkRH8WOjnswGccmCt7YTh6o9DC6xzNwc4B3kPF0bkJdrhTkTSxfhpffnjL0SB1ACpzhrZGPwEdLo4oOSPwzGGZ/jHfhbLpcAU7LADOQWpUoyfYhn7SNqxNpUwuc+cfpaqlue4Ut5+YZnftc3NDgLVrhptqJ3ijKznQLnesVn6wFmc4LMwa1uSGlB4uuCk4XCZaNcnZXA00HjXy+4vK9QW20nMcpTdxQlhY6fmO3dJYUSstJ5zvTl3hnKTctPHA8j6aY35otqHnN6T0dQtT1aOSyWi5zEo+wwnenLmfSVmnOynrjTZvfhLNZC6w3HM9JbpnQECc9OE0nDKzpKKGU0o77HJ9dbbcKuOcqZJfJLmhsAZYWhZX6CNspa+0lX6T/96IP18pF3wYZPiYdX97pWsx2m2l71lkVNUlP20pzGhQrvI/Gs2p1HB3Fr7Sq9sra0qYSlocNMFy3rGt9OaMMqfx3x30CQbl4RMh8TXAn64sLqvRDSnzroaUtYylOf6c4VzQNPn02h33N0vVsxeX6/FvjxjxlfhPlKQcEg0s5S+TysxKW1m32EqvLbVp5U8iy3DWg6EfaVTm2JZ0+kD+QG1IHjgR2j8NzE2l9usxp3q2o3SHP8UzXLcGj2mOM0pvtZW1wFbWRUss66sJ2P7pf5fcRUcsW1a2v2PU1DqG+QB/vRAVKAmce88xrHMbUnUHJ79O2iWIBieTm4Dd6IxlK2q0raxX+SeeQMlliW2ylXUZmzv85eHg5JpI2eUaYIlu6DHdJ9s9v1zKLlZ6yqIjq4clpniX4+jN8D/LrOA4MegWHgAAAABJRU5ErkJggg==;" vertex="1" parent="1">
          <mxGeometry x="569.05" y="434.99" width="54.1" height="20.74" as="geometry" />
        </mxCell>
        <mxCell id="ijF5cBioTtc_Avgv8xnH-6" value="" style="shape=image;verticalLabelPosition=bottom;labelBackgroundColor=#ffffff;verticalAlign=top;aspect=fixed;imageAspect=0;image=data:image/png,iVBORw0KGgoAAAANSUhEUgAAACMAAAAqCAYAAAA51uKRAAAHkElEQVRYCe1WbUxU2Rl+2yamjTFprH/0h9VoUo2rjbUgJWilYhEQuvUDVBYkUD4ky0d3XVEpKCLquoYSd9UNG1hTQeu6LF+C7i6oq7jrohBtLTAwzJ3LzDDDDAzfAzMD8zTnes/dC9E2mE36o5zk5H3ved6P5z73nHsvkTw8Hg++z4mXjBf14BwU+5LcV172AJhwOjFuNMLVb4d7eBiTL6mmkODO9Dj3xASMfyuG5dNr8ExOLTMBYHLS89Likx4Puss/gW5HEHShAdDvCoEQvg1CTDisn9dObwXOQbHTI8yXi9HuvRL6kzlgzQc7NBCzM9B1OB1iSjzExBgYEqNhuV4Kt9s9Jd34wV/RefIY7PfvYOBJEwa+eYD+x49gKjiDjqCNcI2MTIlXSHBHjY4YDNAG/Ab2hq9gqamC/kQ2hLffRGegH4znC9D/7QMYLxWhMy0RnWuXw/7wgTodpsR9MBd+AOFMLvR7wtC1Nwy6d1IwKIoQtvhi+B9PpsRzDopVo/3ffo32zT4Y0uvRdTAN2jd2QjiQgu6Sj2EseA+2O3XoOpgKc9k1iNHhGNG0qdPRlZoAQ+YB9As6DLf+CyNtzzCsaUXvl7eg816JocffTIlXSHBHjbpcLhjP5ELwWQWt90r0P32KgUeN0P/lbZivXkbXhXMQorfDXFIM/Z4/wNnXq06HtbIMwsZfQR8RAnGzD4Rd29D5x63QBfpBzHoH4yPDU+I5B8Wq0YmJCYg5R2B89zh6rpXCcOwQRrVt0Pusghi7B8LvvGFKS4IYFwkxbDPco6NSOjtBbLoA9NR/gY4QfxhyM6G/eA6tXqugC98GS+F5uOR43lMhwR0OMMuk1QRvwkivFfbGh9C+/nsMPGyALiIUPVVl0AdtgCX/FMxVFehKiMbEmENKH7HaIGYfgvjmn6DdvhWmD9+Hte4LaOMi0VNVDvFMLnRrlkD8czLc406lJeegWAUBMGbtgRC1A8LOIGh2hcBSWwXblzeh8V0D/a9/ATFpH7qPHoRwPAtC9C64R5+fDufQECylH6Ov7hZ6m5rQdSIb2pgI2P/5BGamcMklDIo66bj3f31faamQ4I6CAHAOD6O7pgo9NZUwffYpDB++D8OJTOgOpaNzRzCGBAFjVisGNG0Qdr+OcZtVSnc7nbDfqYfl3RxowwIkMv1tLTAczYA2YR8c3SbpNSFGhGLg1g2lJeegWAUBYL1WAjE5FmJGGrqLLqBj3060b1oHW91N6E/loONEDjqCN0Gffwpi6GYMPmmS0kdtPdAmRMOYmwnr/a/QU1MB7RZfaOOj4XC74fZMovt8ATp8XsNwe6vSUiHBHY6wDahPiYfpfAG6DqSgr6YSlps10Ab9Fo7eXjg9HjjsdoxbezDaa5X2T+/Nap4Ou6YFxrN5ELYHQbt1I6wVZRBOHochJR5CeAjafV6TFGd9+OAcFMsBZvubH2F8wI5RUcB4vx0uhwOj5m7ppKjjWMG+e3fh7LUpy7baSum4Wy99BIf1+eMbfPwIYtROmDLfwlDrMyWWOwoJ7nBgcnJSaSp9gzjwH6x7YhJOpxMulxMse0Kp8F3S1K/bd+vM4xwUy+HKykr4+/vDZDIhKSkJNTU1UqO+vj7YbDYMDg7CbrdjYGBAmo2NjfDx8UFAQABiYmIwKr9DWBz7XWCDrVksFskfGxsDq2W1WuFwPH8lKCS4w8kUFxczpkhNTYWfnx+uXr2Ko0ePSg0jIyMlf/369Vi+fDkCAwNRWFiIefPm4dixYygpKQFT9t69e1i8eDGqq6ulm2JEg4ODcfHiRSnfy8sL4eHhqK19/gXnHBTLyRQVFWHhwoVYtmwZ5s+fj4qKCiQmJmL16tVISUlBZ2cnbt++jaVLl8JsNqO+vh5z585FREQE8vLypDIJCQnw9vZGVFQU9Ho91q5diw0bNuDcuXOS2itWrEBycjJaWlqkeIUEdziZCxcugDE/ffq0pFB5eTni4uLg6+uL/Px8qXhzczOWLFki/TowYnPmzMGRI0fAcjUaDRYtWiTVWLBgAa5cuYL9+/dj7969EkGm7rp163D27Nn/Tubu3bvIzc2V9kZ6ejqamppQWlqK2NhYSaGGhgYYjUYcPnxYIsOas72ye/du6dHW1dUhIyMDHR0dyMrKwvXr16Xr+Ph43LhxQ6nF1GOxbHBBFMuV+V9YhcSsM6vA96jAz4moTJ6fEFE+EW0noh/IPUJUeCkR5RGRl6q/Gmf5bxHRAhU+I/eX7E1MRAYiapV9dl0lV0mT154RkVn2PUR0YBp+h4iaZPzyjBiogjmZ9+S1NUSkl4tuIyJOhinwIyIKJSJGxklEP5uG/5iIXET0VFV/Ru50Miw5SyaTPa0ZL1wv4xtV+OdE1EhENiLawgNnal9EJklulqNqxpTh4+8y7q/Cm4mIPUqmGttbrzSmk/khEd2Xm4WpmnEyPyWiUSJyE9H8F+BMIbbnVr4KG07mNhGdJCJRLlYnnyi+ZwqJiM1BGWePkA2Os1OWQkR9RGQnIkZ6xoNtWHYnbLK7ZScql4h+IldKVeFMkcdEFKXqosYdRFRNRFtV+Kw7q8CsArMK/H8r8G/8zdwiSVO3UQAAAABJRU5ErkJggg==;" vertex="1" parent="1">
          <mxGeometry x="200" y="404" width="35" height="42" as="geometry" />
        </mxCell>
        <mxCell id="ijF5cBioTtc_Avgv8xnH-9" value="" style="shape=image;verticalLabelPosition=bottom;labelBackgroundColor=#ffffff;verticalAlign=top;aspect=fixed;imageAspect=0;image=data:image/png,iVBORw0KGgoAAAANSUhEUgAAAHwAAAApCAYAAAD3XU36AAAQzklEQVR4Ae1aCXQcxZmWuZJwZQmwhMO2NF0tyZo+JItdYyRNV3XPqXu6ZyQf8gVY2AZpZnqELcgaD8aSpnskyzaHJd+HbBPbYAyBkABxgJCQ48FjwbssVw6yrIEsx4MlDmBq399Si5E8MuK97CZI0nv9qlRV/1/1/1/9f/3112RlTfxNaGBCAxMamNDAhAYmNDDmNXDzD/XytmduuWTMCzohoKWBSSt/HHt4we6GFE5kf3NCJ2NYA437G7+tP7A4mfhJ/JP67eqfvSlZHsPijm/REkcWfrPp/muSLY8s+eyWR5qp1ltDfWvdH3lMT8n41swYlX7xgblNkYevpc33X0tXPHwjVXuqqb/bTX1rve/5U4owRsUen2It7Ku/qvHQXLrk4Dx646FF9KaHltHgxmrq7XLTwHov9XW5XwlswFeMT+2MQann9akvXPP9WbTxwFx6w6GFtOXBJbT27irq7QQL9wDoJ3xdnu1jUPTxJ1JoZ+V1c3YHP1+4r44u3j+HLr13Po090Ehr766k3k4FrJv613mor8vzntt0zx9/GhpjEod3Vj83p6+WztsTotfcU0+XHGygkcPX0Zq7Kqk3pVhWDpZefqefelPynjEm/vgSp2Z7Oa/trHpzVl8tbejT6KJ76mnjgQbafP81tPrOcuox5X7QUwpE7NSXUt7Ba/CV40tLY0jays3+vuD2Slq3s5rO3R2kC/aG6eL9s2nToUW0+o4vAPeYCoUvsMFL3QZRx5AKxpcolZsDP1V3V9HQjmo6e3ctnb83RK+9Zxa98dBCWrWhnLoN2QLaBtzf7aFKh9xZnCg+e3xpagxIixP4jIot/qdqd1VSbUcVrd9VQxv6VLpoXz1det98WrneT91J2QIdgLfBd5vy267Vbn4MqOD/RISOpRUXGNHQ3FRMq2qLBD0dsZA3FQvWpGJaHXwdEbXejAQrO5q0ou5o7T9kWkRSr7na1IPhZKTGl4qpbrM56O9oVoNGNKQaUa22IxqUUy3hnEy0I7aV3+Hmy3u9L9XsKKfB7RWWW5+zu9Zy69cfbKAV6/xU6SD9oCeh7P/86z1UaVdmjsh4nHesWVYz2dTVPUZM+4/OePhEStc+T8bUXxp6sC8ZCx4wdO1pU1ffMWPBD1Lx0NPtTWpbYln43HS1GbHggmQ8uM+IqR+l4qHPjJj630ldPWjG1QeS8eBLKV37rLNF+3dDV+/obWw8M512xLq/1xMObPK+VbU1QGu3VdDQjirLrc/bo9HFB+bQ8nU+C3AlKdP0z9ftpu41+KoRGY/zjkQicRpYrhFV56V07fi61npqxoJS+w3KhRuaAhd3RGdlt0e0GZ1x7c6ulhBNxbXPO+LBw3ctw4OgJxLhs9qbAhebEXXP2uVhmtJDv+mOqpeujYUvb2sJcmY83AobCeiNeKhzVCr39XiW+Dd5Pqjc6qc128qpur1ywK0H6XX7Z9Pybh+V23E/6B1ksATA8QTgX6rjVEQTDF17c31rPU02h6cMJ0i1eM8xo+p1Zlz7CEA1IsF9J48J3dx1U5iaeujJ9L7exuIzk1H11e4VddSIq0+l941Y92+SF/p63O9WbPHRqi0B2h+t11Bw69d8v56Wd3stwOUO0l+2Y6v0rv3KgJ+WaRGJrCxon5SpL0PbpHA46/QM7ZmaBnlijM8YJd1X4Z8Vzso6fWD9mea32pJ6UEzFtDcA8O6Y6sg0ELyBGdc2puIaNePa+0YsuCh9XGc8dAsAnoqeDKoR1e7pXm4B/kQ6zYh1zx2kxNfjfr18i49Wbu63cnDrs3bV0IX7wtTf5aFkjUTlNjzk83YpJ1l4cXHxmTg39yIvx0wuFbJn4IKLzw0gdD4pyJ4hF7FLFD63NlD03YthMSV5eedhznEldqIb3E5mPhYQ5OgzbgqvcMk5xJkjygI7m0xnlmMezS0RcvICCH3DFgwUj4tzL3IXOKYoIkNKREcpzC07GVnmmX8hAtOs8FMyKtwrCOcoXI4g8yhMRKTLfG7AlTc1R8m//ELftKmXKqIj154HSnlazlQi5vsIxzYTgW2G+WCu9DF2fTSAw9jexqqzTV07DtZq6uohmx7KVEsoYVl4TBti4dBnxrTnO1tCJww9uD6dZsR61YNVZ/t63c+Ub/PR8s0+Wr01QNUd/W593l6N+rvAkiVK2vAX3xqJejpliteUDDnDZfGKyyUO3YUF9kVZZCnm2YWygBKywD4ri+g9d2EutN2nFOSUYSdKYp55ifDoA+/0PKoU5j6t8OxJgCj5+RfKArOJCOjXssDcW8bnHCECep8I7IcSh26GzQDC+ZzO7xAO3U14x+vuQpZKAnqciA4DC+gNIqKPPUUwN3qV5DPF6cpQuJxLcCGbkkT0OObQZuxkH5MFRInAvi7xjvuIwPxMdjLW+wHMJXNoHubRjzHPPAqyyCL7siKyVClit3ry8i5L5w310QK+PxE+y4xpb/QDHn4onU+qJbimsyVEzVjouQ5dKzKjtYVmVJ1uxLQFpq69b+jBTenjv7Tu3eh+EgAPbPIOuvXwzmrasEelvk6F4ttdlpWDpVvW3i5RvMb1Xy7DNS2dOexyLLLXExH9DpRABGavzDFNyvQ8gXCsSgTH656iPCrz6GmZY9fgQoRdHKqTBPSEb3oeJTyKhQsKzrJ5grdQOLST8OgoKUBOu53w7BxFZN+SRfYTicvxQHtgBjrfsjgeHbXm5pk3JZ5ZiQXGjwV0rSygf4UNRwT2sM0HSgCZCOg9b3F2fn87PkMW0IPAAwuO97HAbCwZmBtzjiWKiD4jTna5zQM7GUQE5rCvOA822R7wXHYflKMFHKJsIxo63L0CgjvtSDgcHjy6APCUrkFg964Z0+6HKN3U1d9YgaCuHTfjWqQ9rg2sP332EerujfIq/ybPx4HNXlqx2WcFb+DW5/YFrZSqtNplgQ7Aw6cYMsVtrnhB4gtw0lnLIjrkLsqlpfxQayI8utNdmEdlsd9ibBoXz7pkER3HAvNbedqlU+12ScwNBorzKeFQnd1mlxLPLAbPIAmOJ+AIsdtlnl0Im2f4HJLT8U+wJiKwj9nKhCMIPAwR2NdseijdPKohAvsnzDNv2O2KExUQAb3tFtlXwCvY7VDiwuxsWUSvwHrIMJlHC3gigc+AgM0CMa49Cue6PUe/hYepoWvPtjeFC1ItmpCMB0vbY6FFyXjo6LoV9dTQ1dc749psm+aUZcXdFRf4ety/B8DLN4Fb74/WIevmNRV6MuCEkttd1SMxlUX0oAU4O9RFuzi0igiIKoXMzqriywazdHgawxER/VHi0Qn7vKzOu+g8cNGW5WcAfGCTULBEF8dcPbCWSeByB7zF1vT1efImXwZrwgL7czizoQ9iAABxOOBYyL6KiOx/SiJ62g4oJR6FLUAFtAcXZg9PlEwiInMveC/MMzemB4ijBby3t/HMZER9FsAz46EhXggAhzPc0MMnBWZt4Nrj6qcbWmdBFH9fusynrHs3uu/y9bhP2G4d7uT1u2ushxPptjIqre7/5A4MVv5znMAXjcTQBtw1zcGmjylzohgWmM9kHu1OBxxABqWnA+4VmH8kPPoRKBlzTH06H6jjguxCSWBes5QsOkoH+icRJzPfAlxE29JpIJgbsPBfpLndSQCsDFbuRLCBJ0Hw53Iyd8gi+qTMyQz+rAs7mVnWWkR00Oe84jvpvKEui+w+iBMkDrXBrcDuHy3gG5oC3zB09aO1AGw0uNemh9IGPFOUDt7KiKt9/fd87ZmO1ooL0mlHrHt3ec/x9bj/YEXrW/qj9bpd1fBIQl2JMmqDTtqkT12J0uSIjCzh+y18OOCEz44RAX06EuCYR8fhTATe1SV55xGe6el3k+yc4fO5eAePRfSyLKC/gLse6J+EncyCrwB4FilEy4jA/Inw6BgWc27HAvM9zKGXCcc0p1sqHCuwYWSeeRtc+PD1AODWhnAys2yvAGMAcFNX/wjXslOlQduj4ZkmnNO69gq47XT+ZkxtG+laZh0Feiix4WawcPWnvYmqQc+ZziNj3d/jUQKbvR9XbPZbbj20q8pKpQLg8JE2/LmUKDtQ3Fh8yjSebeEyh5j0iYiQcwu2ImBmR3jmFd+y+wYtnEN/TqfBzpzQAHh9JSVDgyGJRzMhGic82lrBT7F2NVgn4dnGTC4dzvnhLt2eH2gwz7yHhZwDmEc3VBdNPinaLhOmTscceseK9gvzsU1rl0REBz1FuYNHkt1uxKqvNHX1rVMBDpkzQ9d+b8a1T814zW02rV2a0eC6ka5l+8Ph001d+xXwN2Nar00zqhIeUvwb3R0VW/0UUq3wegZ59LJVpdY5Xraq9GjpytIh15pMjL8AfPBstYbJIkoORO+H0xMWEIETDr0j8egTnJ8/aD142mROFtlXvNNzwa3HMf7i9/GSyK70Tc//EM7b9DVIImNYliYwO9LbbcAh4scF2d+1+wiPJCKi5yCKh7s4bD64rweKkJUvsMdBSXi2x7JyET0DHsbuKxGRk/DMm0RwnHS+d8Rq3J3x0Mdrl9dBUqXVaFIHfxOYWIbP7YjW4pSu/drU1WOGrmb0nGZMfaCrJQyAvtQW0QZ/SNoZr7ooGdEauiFDpwcfgyubvaZRl4G+wPn+Ht/equ0B2rAjRD1tMnXdVkbLbi15s+zWq7VTMYJzUnIyy0H4gQDmCOZQA2SkZCFPlkX0IoAhCegTF+9YAa6vUsy9XClEOxUxl8K1Ce7xRMieYc/jEvJkd2Gudc3DPNMjc44lhGdWYz7nWUiS2OMgaQP3csKjdwcA/60iIr0MoYsx73DD9Qo2Dmw4mM/2JMTJLO/fhIhiAX0oc8zLhGd+IcOVUnS0SkJOmT0HROBYQAcU8CwC+zx4A6mIbSJi7n6ZZ/b7iqdeao+FPLqVMtW1B+/83mwKFrh+RR1NxUKPJyNqmxnRbk1G1G1mTHsuFQ8/Ai9oNq1dmrpWnmqpW2nq6qcWfasVjf/OaFFXG3rdymQkdJ8R1V5NxUPbhh8DNo9RlTPXzvyWr1eJRzcv+J/2bTHqvd39o9LW6V9q2ZAtw050nWsaU+/iWNVKUhShkJUFK3CUKiJqgGgXi0w9bAQAHJSkFOYusO7pHKsqTmZBmYCmpy8U89n5CocaZN6xQuaYFgjMMiRpTiM804gLcxdARg7zzELIAUD2rUyYosgcuwQydHCHdwt5S9PpYSMRnvnA2lAiu08WmGflQpaC+yYC85rMTR48moqLi8+Guz3wlgR0s8wzN5YVTFHS1wt1eB5NRtTrzWjwhmSLtrgzrjYmdW2poatRIxaKG5FgsxENz4NcO7jl4fTwf5eulXfGw5F0+lSL1mzEtJuScS2SjKlzjGj9kFxIJj6jaivuLT7zri3LH37ogQ109Y7WLwV7VEz/DgdhzrGKCMyjREROiN4hHrA8FT91JhHQH4iAjktDPcnfoRR/pSX17Vzd+sMf3P3LFx7bOyTR8Fdi/zdnIwtoKcQOxDk5Y04BgjlZYN7FHFv5N1/s/8cC9u83PE89dc/OF154bEwCjkV0CBJBcFZn0ifcAIiAfpZ+zco0bsy0Pfx4L/NvLx7pPnr0V4NR7ZgRLisry1XIXE0E9C4R2L9AjAD3+f6ETk6ZFQ+I6Cfef877aj8h+ror6NixozOOHXveSkV+3WXJtH7MO1qxyDxJeOZziXOckISc1wjPHHFxzA/gaTQTzUTb11wDkOZ1ORlZKsgJw+sbvIN/zUWaWP6EBiY0MKGBCQ2MPQ38L7JoUQGRwj0gAAAAAElFTkSuQmCC;" vertex="1" parent="1">
          <mxGeometry x="413.68" y="431.86" width="81.66" height="27" as="geometry" />
        </mxCell>
        <mxCell id="ijF5cBioTtc_Avgv8xnH-10" value="" style="shape=image;verticalLabelPosition=bottom;labelBackgroundColor=#ffffff;verticalAlign=top;aspect=fixed;imageAspect=0;image=data:image/png,iVBORw0KGgoAAAANSUhEUgAAAJYAAAAmCAYAAAAmy2KXAAAXbklEQVR4Ae1cC3RU1blOMo88GWBCkkly9skMmcnMnH0mCXmBvAwBgUResU5FBG9IZu99ZiDcBnMtiLemvb086mpZl5ZatBVrrYV5JYBysdWLrY/W+qgWH7RUBdGK1cqzoqDMXf8wJ56cZDIzYmpXS9b61zn79e9/7/2d/7H3nqSlXf77wmcgEolkRiKR9JESxO125y1evNh80003jRuJPiKRiD4SiYyKRCJaGMdIjmUk5P+n5BmJRDIikYhuJAYHCzxp0qQao9G4Mzc39yhC6KaRWvQYoHQxkGlHYjyXeaYwAwAq+NJTaJJ01eXLl6OCgoJ96enpEY1Gc5Ln+WUjBSylUH+PPpT9XX5XzUDsKwczmKEquuRkJBLRmEymjRqN5pO0tLSIXq8/3NjYWHfJjC8z+MefAVj8kTKDjY2N43Jych4DUAFlZmYeuOWWW4r/8WflsoSXPAMxZ3dEzKAgCBOzsrLelYGVk5PzTCQSyb1koS8z+MefgZHyrUATVlRUrNBqtVFtBeDKzc397bFjx744YPX09GiVlJaWlkoYnO73+zXK9vL7Z3Xo5PbyM0V5+tHldrsHyZWMTFAn1vcAPwjygWcy8ih49M/ttm3bdPv3789qbGwEjZXKHPePKd7LjTfemF9aWhqStVXMFB5cunSpNV6bEcsnhGDG2B2U0l5CSDhGvR6PZ4ckSW0wuYk6Z4zZCCH3K9r38yGE7CSEtLvdbn0iPlBOCKlmjH1PKQ+8U0r9kiQtTpZPR0fHBI/Hs1kpU4xPqL29fVYiWVauXFkC88IYu1EJRMbYXErpjyilrkQ8GGNXEEKCShkkSQp7vd7dlNJtlNLyRDxSKa+vr68ePXr0a0pgabXa41artX0kAoW4si1btqyQUrrD4/GcYoy9whh7EUiSpAOU0rcYY0dhcuIyiBVQSicSQs4yxt6ReSj4vEkpPebz+SYn4tPR0WFkjP2SEHJCkqSXZF6SJP2eUnqUUvoGYyxhhNPe3l5CKX2SEHKcMXZQkqSXY3QQeBJCvpRIlvb2djv0Rwi5XVmXUrqCEPIuISQhOBlj1xFCLhBC3mSMHYC+V6xY8VJMll/AR63kfSnvAH6n07lYq9V+rARWWlrahaysrENOp3PdokWLGmFu5s+fnwMWRvnBXErfg9rCV0cpfbWjo2MrpbR4yZIlY0Gd3nDDDQbG2DUAFI/Hs2pQQ1WGx+OZRAg5wxi71efzmTweTxGQ1+sd6/F4rpUk6T3G2GpVs0HJtrY2B6UUwPATkEOWx+fz5RFC5jHGThNCbhjUUJXR0dExhVJ6UpKk77S1tWV1dnZmwlOmmClTtRqYJIRUEEJeI4Tc5/V6J0mS1CBJ0gRK6bc8Hs9fGGMzB7YYnCKELKaUnqWU3gYfVmdn55Xd3d2zvF7vlV6v156MNRjMdeiczs5OQ2Fh4Z0qUPX7Wunp6Re0Wu1HeXl5b5pMpgfHjx9/m8Vimd3Q0FDR09OT87mCrLOzs4pSegi+JkrpvYyx7UCSJP1IkqS9jLFTHo/nK0MP5dPcmMY6Qyl9gTEWZoyFGGMB0IaU0icopae9Xm/zpy2GfvN4PE5K6fuU0j/IssTkuYsQ8iAh5CPG2NKhW3+ayxibzhh73+v1fv3T3NTeAFgwN9AnIeQYEKX0bULIKdCoHR0dCYFFKXUTQj6mlJ6Atl6v923Q3owx0Miburq6slOTanBtAMTcuXPNHMdt1Ov178UDljofNk/1ev37BoPh6dLS0s0ul6t5z549OYN7+Aw5jDEA1h9gsJTS31JKf0MIeSr2fJlS+kGKwDokSdIjMjHG/o8x9hBj7KugLRKJqADWOwo5QJ4nKaUvUUo/TkZjeb3eaaD5KKXfSNRnvPIYsF4lhPyKUrqGEPJVSulNhJA+j8cDGjghsCRJ+jKl9ENK6T0dHR3/vmrVqtUwn4SQbkmSGpPRnPHkg/yenp48u93uNhgMv83IyOjXTmoQJZPOzMw8k5+f32s2m5eDizRcvwnLQGMxxl4nhNzh8XgsYH89Hg8HZhH8EEIILHBCExYzhR9QSv8TTKAkSYWyOYT3np6epBz35cuXCzFTeB/IoZSHUrqIEHLa4/HcmGhgPp8PNN87lNKDlNK7GGN3wlOSpLvAafb5fFMT8YiZwsPgYymjQErpymRNocfjAR/rPCFkv8/nu9Pn84HTDzLcLUnSBkopn0gOKAfH++jRowO0G6xRcXHxD3Q6XdJaKhHAQIvpdLoTRqNx38KFC6d9Zoe/s7NTAGfZQ+l/pKWlDQir29vb62Kaqz3R4CGSI4SARvm3RHWHK/f5fFYwp5TSb6rrQR9QJklSq7pMnXb7/RpJkryU0ucopfDhyHQEfEowUeo26jR8aIyxqLZSlhFCllFKnyaEJAxGPIy1EEL+BP37Vqx4jTL2mocQoCMUgpQVKxI6783NzRzHcbcXFBT8bMOGDWO3bNmSKYpi69ixY5/IyMhQO+qXpLVk4AHAcnJyDo8fP/4r27ZtS908Nnd2Zt5w881cc0+PQTl58A6RA4TD4ECry9RpdySiae/qGu+mdLS6LJV0TySSAXwgAFC3q922Tbd83TrUuH17QpMabRuJpC/ZsGFsG2M2iPCUdENn56Dxqvtz+yMaz809nHvjxgFjcm/dmuf1escn4x81b9mb2bZmjXlJ15rxq9evr2hfs2b8su5uy5KurvGLV69GMP/qfpVpAFJxcfG9Go0G/KG3ZsyYcY3Var0tKyvrHRkEI/nU6XQf2Gy2Wzdt2jRKKVfC9132caPCAj816ORaegWueU81Z0vYKFYh2haXNYXF0nkBgWvebS+z7J1gKtgl8lf1YX5+yFl2dSrUh9GcsBOJkTibhsA77OCu7HNxLWq+IL+awiJ/1S7Mxd0Y7K02m8O4rEndTk7DfIBMuzA3V87zO0uvDuHSGYes1sxnamt1IYzqYfxyufqp5LGrkpsL/GSeD7rQ9L1Wa1yAg1NuNptXabXav2m12g8RQgfMZvOzWq323EiCSc1br9f/zWw2r03ptCBcicSgwD0XwuhMEKOTvSK/Nllg+TEvhEXulV6MzgQEdCIsoO6dDjQnhNHrMX6ngxilQPypIEZHQpjb1ieWIFkOAFpA5K4JYfRUUEDHh+IZwOj0EHQyjPk/hTC30S8IeTI/AERARN1BjF4OYnR8iHZD8YrmhWA8Av/Kz8QSdH9FybigiHqj4x+6/wF8gpg/JfcF8xPG6EW/UFoty6V+ut1uo8Fg+JVerz9ntVp/k5+ffyQjIyN6Y0G9+COd1mq1ZxwOx0o4MlLLOWQ6jEurggI61CfykSBGkTDmkw7P73NwrgBGb+2+2PZCn4hu8TvLrg5g9FfgF7rIL9KL+aQojPlITI4LAYH7H78gRB1+v8A1BDD6I5RBnVT47RL5iF9AH4UEnvrT0qKTEhb5eQAoKEuWl1wP2gQE9OftDpPZP8FUEMToIRh/qmONzpmA3gyKKO5mb21trauwsPAFq9X6nNFofH2kwZORkXEhIyPjPBD4WOr+srOzD4ui2DgkkNSZu0SuMizwB2HBAhh90ivwt6nrxEvvcCIxiNEbsOABjM4HBX4NqP4g5t6J8QOwfhAQ0PsBAR1PQO8HMDobwCjSG+XHHQ6LZc5IWlpGAKNdsHBQFsDoHGhHAEYi6ud3cWxPPyiYTXutpoKAk3viYh9Rfh8mkGuA3CGMjvtFdODu8hIEwApg9L+x8V+ULQm5QO6QgE6EMHphOI3V3Nw8oaGhYV9eXt7nFvWpwQIAgouAo0ePfqq6unr9rFmzvjx16tTlDodjy5gxY57RarXvyiCD7Yz8/PxgV1eXMR4m+vPVwApj/mv9hQle7hd4rASWXwEs+MIDAjoXcKJ7dghood/Jte5wcNfEJQEtDERNFvobgBIAGXKi6XtqS8aFMHoDtGkMXOFejK4PYu5LIcxfOxwFRLQegBhtJ6Az4A/1CdzEkBA1zwCECyHM/xhkAvmGI6gTgHqYvzYglDXvbzRnhSvLC2VgReUT0GN+kWsF2RJRQODdfU6u5QEXP2RgBGH+nDlzZowdO/ZNNRg+rzQAxmAwPF5RUbFs7dq1+cqddzB5R44cGdvU1NRkNBq3a7Xak9CvXq8/UV5evirhNsQQwPr6/sY0LfghwxFgDr62AEZHZY21Q+D6NRZoBABHWEAJ98Bk/IYwPyWA0btRUGJ0cndl6aSfuvjxYFoBHEC7hLKVcv1EzwfEMmcIo/dibc/vxGjObgg2MP8BAMGP0cd+J/Im4hOvfJdoKfJjtA/GD330Cuin8eqmkg8LPHny5CtGjx79u88LRGo+EAAUFhaGW1paykA26DN2Ryx6Xfq6666rMJvNmzmO+xqAq7q6ekVWVtYxqJqXl/fCvHnzht9/UwIrGP2CwZHntyeisMjfFcSoL4h50ATw9Z8HjbWzgmsJCOgvMa1zPoTRb3oxvy2M+btCGP0wHoUxf2dY4B4BDQPACmL0dKi2rHiHo7TCHwMWgCEocJ8VWOcCIpp9v8hVgnwxmSNBET2baKzRcrHs7h0CtwG0tAwSJbBiGvXVoIB+lAS/H4cF/g4AvsxL+bz++uuLjEbjg7IJUoPiUtMajeajkpKS786ePRvBr4SmTZs2xWKxdBcWFm6Fs0aTyfRdu92+saqq6tt2u/37RqPxMYvFsrW2tvZrcASk1WrPl5eXL1ZqOKX80XclsGI+DCwqACVpitX/uFfg1yqBlQoPqBtbHPj6T4ecfPR8EiJPAJYsk19AjwdE9IOggO4YjkK47PtBAe0MCuhsjO850Fj3VhblQtQZA29KYw1i9HFQQC+DKYRIFUyhrLFSGWsM1Gf8uLRJvSBwXdlisXxbo9GcjwcgjUbzYW5u7u9LSkruhrpFRUUPaDSas8r66enp5/V6/cns7Oy/ZmVlndTpdGchogRg2Gy226+++uraurq6L5nN5u3FxcVBq9W6sb6+vm3q1Kmzpk+fPnvy5MnLHA7H+qqqqo1XXHHF+nHjxr1QWFj4FMdxUS1aVFT0k/b29vh7W2pggaaByCcZkh3g4YCVCj/ZpMC2BwCrJy0tAxx4JbBkAEKfyZBcP4TROT/m5sJC7nGZHUEn/zREZsmME+rETHs0Kg1i9BLIBftqso8F/QBgoC6MYziCfkHDh1wlA67dgAZwuVxunU73vhIkynfYsOR5fv1VV11lk+/N19fXX5eZmRn1gaCuTqc7xfP8w1ar9ecIoWd5nn/RZrM9X1pa+kpNTc3uKVOmdAFonE5n18SJEye1trbmwy0LpQaCdzjbnT59uquhoaGrurr6Qb1efyE7O/tD6CMnJ+ftadOm1ag/jP60Glh+Af3ZL6BnE1EAo6dhHyiA0UexL3AojfWJX0BHoW5CfgJ6JoC5V4BfVJsI6PVd9hI7bHAqgQVlyYIBFlcJrHAMWDB4v8BP7RP4+/wYPZVItovl/MGAgM4DP4iewyKSlM475PsF9NeAgJ4B8zoc+TF6PoC5JyCY6F+ItLS07u7u3DFjxvTFM4FwfFNUVHT/oUOHorv1AKwZM2ZUGY3GX8Jip6enfzJq1KjDVqt1D8dxj6qOez4uLCw8WFVV9WtRFO+bN2/e1GR/zAH1KisrfQaD4Q0Z5CCj3W5fF9eJVwHrk7CAbg85y4oTEfgXvaK5EfaxYpprALAgzy+gD0Mi3wMLEPVHBLPJH4fuFwuL+lycyy+g50ETAXgCTuQLuswOcOhjWhG0wvMhEfWGMQonoFBIRL8AoEJb0FhKYMkL6secMZ5Mcj7IBvtNAdBU+KKjHsBoM5TLGgs+rhBGYRgnbGsMRzC3UA+CI1kOeDqdzkmZmZl/kRdP/dTr9cfr6uquP3TokKGpqam5pKRkU05OzgGdTge78r+eMGHCjrKyskdzc3P7AaDmAWmdTnc6Ozv7j6NGjdpbXl7e6Xa7Bx2fKeWCdwBQZWXlzLy8vJdlngaD4bkFCxaUqOtG02pg9eKy/xyy4hCZsOghER2JaYZBwApidLZX4G77saM0HyZyOII9oR24tMovoAMAhN1iWSQsonV+V3QT9l1YOMiHvTLYgtiHOWMigigz+GlE2Q+sPbUlObBz/jM7KgFwDCcXlIFsvQLXIO/3RUHuRN8ZClgg20OV5YWJCPjCByeDCyIyi8WyQqPRXJAXTv3My8s7arFYdo4ZM+bxnJycd/R6/Vm46mKz2R7mef5x0Cjgf6nbDZfOyso6VVNT06o0g0MsdTQLwGW326XMzMzjwBNMdmVl5SA/MVp5ELA++wbpAGDBlw37RH4BvR0U0YEQRi8OR2ExCqhXISqEhQOTFxDQcr+9xO7/dMsgpe0GcPwV2w39PlZYLLsGQAK+0nAyKcsCAnotugkMplCIawpPwjiU7eK9BwXulTBGe3fZLXZYiK1bt+bxPL8tHgjArJWWlj6fn5//EmxUjho16nmM8Y0cx33Pbrfv4zjuSbgdGq/9UPkajeZccXHxXQsWLCiKByZlPvwfiIULFy5xOByParXaD+D8sri4GM4QB9yK+XsAKykHO6qJZI0km0GMDu1xcjZ/zMeKmZpIWORXgVOvHHC8dzgHHQpYAcx5QMv2a0FF32pZ1Gkw0UEB/R4AD867MipU1x0uHfUjMXoVtDTI39zcXF5YWPiroQAAeeDT6HS683Cskp+ffwc479AOfkpvs9nuEUXxoZqamm+NHj16X3Z29htw71198Q94xG5JnICfhHEc93X4jUG8+ZPz4dqyxWKZLghCt91u/2F1dbW/pqbmJyaT6Z6ioqKHHQ7HkkFXrPdgC5wVvgqRCmiZXoySvnEZM1PHHnCVyW1vvc/BzwsK6ATwGy4yGqoMJjumqd6Csz0I6WHfCA5u5QiuD6OuZIEFPlsI86fkse10ci0wWUHMkz2ui0HAUHLEy4uCQUQH/BgtAD5RMylwj8D447WJlw8yhTB3WD7SwRjPgEhLDazs7Oz3YB+poKDgbp7n11ZXV7esXr0aLViwwF5VVTWvpqZmRX19/a1wQAwX/xYvXlwCV4xLS0tvzc/P3240Gh8YN27co/n5+Q8bjcZgUVHRZpvNtryxsdGRzG0F+O2DxWJZV1ZWdq/NZmtbtGiRefr06ay+vv6etrY2m9Vq9ZlMpmdsNtu8AeZ0v2A2BTHqCji5jX6MvgnXSGSkJnrCxIac3M0BzG8KYPRfcKUl7CitCInolqDAbQgJ6L9TIeARxGjFLqFsgtx3zHFeFxLReuAVdpTBL4aS+i1e1I8R0cW2GH0j6Lx4JajXxdemKh/MDcgGGlSWbatQkOcXUFsI85tSGSfUhf7hVALmH/jV19fjMWPGPAVaBTYgDQYDXLLbPmnSJO+MGTPonDlzyLRp00hdXd3Kqqqqrtra2lVVVVXLa2pq5jQ1NZUOWFRAZ+w/2Tz55JPZmzdvHrNlyxZDqv8NBn736HA42gRB+MH8+fOvjP3LJW1ra+vcysrK37W2tkJkqcEYX28ymR5xuVyufjlAK4ADCTcJohS7ASBP3nDPodqCNhnAT+abxFN2ZJV9qvuAQ2ll+XDvQ7SNAhJ49I83Cbmg7lCyAcDh+OulJHmo+wSeICOMAbQHxpiIovjCrFmzfjp58uTtoijumDBhwjcWLVo0e+HChUJTU1P55MmTy0RRLLJarYZLvS8/3NxBWWNjY57ZbN4EEafBYHisqKgozPP8vU6nc8/8+fO7ly5dGv1/EHDvvqCg4OcVFRVrB5nERJ1cLh/5Gejp6cmaOXPmFXV1dddOnDixpbW1Fe7tf74/y0phGHCDGC4aOhyO7pkzZ85oamqa7nK5Fk6ZMqWlurp6rSiK61wu15KWlpaKgoKCLTzP73C73QNu26bQ3eWq/yozAGYNtNH+/fsH/RK+paXF1NDQ0AqRrNlsDpWUlIQ5jgvA70j/Vebn8jhHcAZgV14QhDaDwfB2eXn5d5P5HcAIinOZ9T/TDCxbtizXZDLtrKyshP9xkbQP/M80B1/YWMCswNfdHzV9YZJ8/h3DmOBAWt5o/X9xrwvbLGCnnAAAAABJRU5ErkJggg==;" vertex="1" parent="1">
          <mxGeometry x="315" y="402" width="98.68" height="25" as="geometry" />
        </mxCell>
        <mxCell id="ijF5cBioTtc_Avgv8xnH-11" value="" style="shape=image;verticalLabelPosition=bottom;labelBackgroundColor=#ffffff;verticalAlign=top;aspect=fixed;imageAspect=0;image=data:image/png,iVBORw0KGgoAAAANSUhEUgAAAEIAAAA8CAYAAADSfGxZAAAWM0lEQVRoBdVbB1hUxxY+dEFApCMgRaPhqVQVAQEFEQSUIksTUewaW+xJNGrUJBp7jC2JPcaoiObFbmJJjL1rghpNYkNR6aCyy/7vO7N7YQWS53uueS/3++439+6dO3fOP/8pc2aW6L873IjoJBFdIKIPiagLEbkTkel/19zf8y1PA0P9s8lJgVi8oD9mTEsFX7ds4fjA0FD/RyJaSkSpRGT/9xTvxXrdytTU+MKKTwYDz7IB+TagMhtVT7ag+OEGHNg9DRPGxqODfwuYmBjeIqK5RNTuxZr++9RqQkSnxo+JByq3o+rJNsjLt0BevlmciootgCJHgPM4by2+3TMNfTM7w8LC9BERzSOiln8fUf+4p42IaFtMpB0e3R4AZfk0yEsXQ17+BeTlOZCXZ0NevlUAo6jYLBgiQHmWjVM/zsHoEbFwcrLKUwPS+o8/I57oEpE/EY20tdWfr37nHSJKJyIejP/ZYUFEX3i1McONizFQlqRA/lgG+eMUyAv6QlE8FvLS+ZCXrVGzo4YpgiWVKvX56cJi9OsTBnNzEwZkBhHZ1iORnaWF3md90puW7vgyCCcPdsXebSEYMcQdM6fFIC05+CoRJRORTj3vavWn19U6zQxwJCKZnh4djoqwRe6ZblCWpEL+OFl9MhjSmQx5QW8oioZBUfKeGhRWG4kpm6ttybEjHyA9NRj6+rrn1aMsCeDR2sPk6O6twagqTIayPBXKskzg6VtQlmRBWdYXpY+XoX9W1ydENIuI9KUXtV1GEdEdO1vDCjtbo4fmZrqFRFRlZ2uIr78MwtOHMihLU0Una8CQQOFSAkUGeUEvyItGQV7yIeRlq9Vqkw1FxVZhQyrLvsLmjWPRNcJbYWiot5aIMrw9zc+dORIBZUUaFAVSuzLIC7OgKJ2Px7f6oqp4KB7lfYa4Hv4KIhqmbQC4PRsiujIoyw03LsQg93Q3XDwWiSO7O2P5Al8MznJFVoYL/rkpCI9/S0BVcYpGZ6VOa5YSKMwUBmWkhk1hQLKFYS0v3Ihvct5C+3Yt0NqjIQ7t7ISqohRx1oAtg7JsKHbmjMa+nGBAMRW3b34OP99mJUQUoW0wxocGWeHhr/FQlqUKQVkNmAHSPYOzdnk7LJvniwM7QlGW1/NP2CGBIgHCZQrkhf2hKHkL8rLlQm2qnuQIQArz12PZJ0Ph4+WE0cPcBdj8bQmMqqJk/Hx+AGQJLfHrpe6AYiEO7Z+FJk2sThGRlbbAMDc11T2zf3uoEFr6eO2SWcDgPHmQhKP7wsTo3b8eh8pHLGRtwaV7zVIDlIJUKFh12MiWb4Ty6XZAuR25l5agU0gbBAda4PKJKA2bxKzIxNYvB2PuTG8oinoDVesw54O+IKLp2gIiuns3O4W8IPnf0L1GKAakPK8nHt6MR/n9JNV7BWlCn9loitHXtBniuub9GnuiYom8ZCbk5ZsAeQ4e3VuDjLROeM3dECe+6yLYyUArCmRQFA/HjKnR+PVCNJTlI/Eobw0CA1o+IKJ/55JfCKvDCz/0FmpQM7Kana7/mg2aOKvZwPYgHZWFgyAvGgNF8VuQF70p1EFekIaqAplQJaY5s6v6LFQJKS96A/KydSJYKyvciJhof6QkOqBSgMB9kAmGfLsrAzs2Bgs3jsr38M+ctzloW/BCkv6bSs9WL233HwNRP2gS/XmkOcaYDHnZUjwtWoJ7Nyfj6tkUnD/aDScPdsHpQ+HIPR2FB7+o1KuqOBnywiGQl20A5Ntx/tQCdAq2R/4vcdW2iIF/fCsTGz4Lh6JIhqri/ih9tBZhnT0LiIhd/0sdvy/4wEtLQEjskQBhV5qOioeDcfvaKJw59i52f/021n4+FLOmx6N3ug/CQh2QnuwsPBWDoSh+ExyIsWcZNjgMpw/XqIcAvyAFP59ORtGtBFQV9cGTojXoEduebUXmS6FARNP6ZbpoGCZJGG2VMigey6BSiXThCvFsNZ6WbMWxI7Mx7s0EWFhYICbSFiX3eqrsTckMQLED61ePwqpP2j1nxJkVJXeShG2qKu6Lh3eWo127FneJyPVlgXBt5tYgjz0A+/D6Ka8NUDgkT4OiaCAU5atw8uhcTH4rCT0T/OHt5QZdPR1sWNleRJTMImXFcuReWoHJE72gKK6vX+xJ+uPk0Rlo3Nh82cuCwO9z3D5nyoTXXykrWDgOweUcgpcuQVXFBqDqGyif5iD/7mpMn9oLYSE2ghVsWBVFg/Cs9EssWZCIe7mx1XaiZqBkUD4ZgonjulcSUYI2gOA2bB3sDU9zJMkBVM3HtMGE2m2w/WB2ZKq8S9nHwLMtqCzfhiEDu2DPNvYI3AcZ8HQ6Duyegu/3hNXpF89HHtzsDS/Ppr9pe1bq39bH4h6H2KqO1BZA2/eSQU2BvGgolE9X4tqVFfj8k46oLFA9qyrOwPXLM5DV+3XwPEShobrK0hTsyYmAsbFRNhHx1F2rR2RMpF3e3as9/iIwGFw1IKw6JTNx/vg4lNxJVMUoBTIU3+uLQ7u64+dTUWLix8aSGcvMnfVua/YWo7WKgEZj0dGRdo/v34ivjuperapITGPvkgx50QRUFmSpAUoWIXzB7z3rGHKei0x6s2WVOnGs0X3tXiYldHcouc/BjAYdtQEIjyjrd/3tctyRCnlBf40wXWKNBFgNI5Yv8FXo6tLbr0I1NOF8b1BfVzyrDnGf78h/AopItKhnsvzevas9cO1sNJ49ZLWo3S7/xu6yPpdZU5eBvH42Gik9ndhrvKHZcW1fWzg6GB6/fi76P1YRHnU2uCKRU5SCgt8TxIx1/vte6BnXBM3cGuCtMS2F8ZN0vi4gKqFZYG6rqjpZowFGcQoOfhMOczPDm9qcjtcHZNai2d5Kzhr9UUel3yXKC+GLU3DhaCRWLvRF/0wXeLYyhYmJLhu26nPpPB9V8FSHERqCFqXg14ux2LI2ACcPRqBMijzV7zBId64monOIA7c7oD4BtPWbc2QX23tPHqpmjiys5ghWC1+WKkYt/2Y8stcHoE96U4SFWAsANIWXrnV1Cds2BNaJDSRQueS2+btTJrbGknntcSe3du5DVefBTRlmvOvHQBwnInNtCV6nHVtrg5WHd6kCLcnICdozXQuTUXgrAds3BmFQX9eK9n4Wd+Jimimz1weKbNe3X3eCcYPnmcBgGBjogJO0mlkoTRAkIApv9cSVk7GoKk79A+OajGePkgVIHQOs2YP0qSOAFn9oF9rR+sLwwe4PBvdzKx02wE3+9tiWVe9PbV06flSL3LY+jXYZGupOI6KhgwZE/1KaPwbKMtbrFJG4+cfrJtXqIDFCX18H33zV8U+BYDA4YSxshJpxf5Qr5Yz3plUBMDLSvUhEllqUvU5TjYnIhYheI6JWRNRGfc1JXwN17W1DBoZCWTGwOgbgDk56s2UdIHR0CF+t7vCnqiGxgrNg2zYEoF9vZ8gSHLEvJxSKwho7wvU4yiy+kwQ/H0v+Fq97/M8OpqTSx9MST/Nr7AiP4KVjkWhsoVcHjJWL/ETqngX5s/PQzjB0j/GHl3egaGPRnLbVTBJ2JF+GYwc4bxGFpHhXrjNEjQJPJkN4qYCIGvwVyBgT0SGmvZWlHi4fj6p2t9xRpndcjH0dIIYOcFe511qjqwkKu8z7v8Rj0xcT8fHiafDxssDUSW2QfzNBsIJtVEV+GpZ+/CYcHKzh7CTU8D0iSmzYUHdz13AbuY9nI/722L8CiCAiKmcgmPLrV7SvHjFB27JUoQa6OjWuk+saG+ti1pRWKMlLEvXrm+gxEHnXE/HjgW64di4G+Tfi8ei3BFTcTxKGuvh2Au5dS8S3e8aiqbMlWjQ3Ufbp1bS0X6aLYvnCtji6LwI5G0PQwMTg8qtcGZNA/kAyglxmpDgLAyfmDWo3yJnuiDCbOqzg+h0DLMGpQp5dPs2vG2lWPJCSvilCeOGyOb64FIslc30wcog7eiU7YECmC9hbXT0Tjez1HbF5TRAun+yG7/d0hYWF0Q+vOgzXS0pot9vB3qJaSMvGeiI5qznCPFP8elMQDA3rulIJxB7R9mLRiAXVVI/6rjk0v3IiCj+djMLs6W3EQvG4Ea8JcNjL8OITr7dwILhxVQh0dekTadReVWn+xdrhl6e8nVQNBAvGo1+qsRLGVr70Xk+EhVg9V08CgQOsdcufV6n6AJB+kxaVeFmy+E4irp2LxqLZ3qiUlhiksjAVwwe/zt/s/6oAkNq12ZE9/tbDvLXw821eLaSeHmHOe21UcwS1MWRW7NoSDBPjuqxwdjTCvWsvPtNl1lQ8SELR7USx7sEB371rPYTqSGCxIc2/2RM+3pbFROQndfhVlXbbt0y4C+UuHDs8BQ72DarBMNDXwfxZXmJiJQVCvFiTJnOqriMxws3FWEzMNOMDFpaDMhZIEq52yXWYEXzWrseq+c3mzjAzM+TQ+5W7T+utm8b9DiUnYRdj15ZQONgbVgtqaKCD4YPchbVnRnBIfWx/OCwaPR9XcKT51aoO1XGFEPB2Ir75KhhXz8bUa0QlUFhNuL50zyXfl+WlYFCWUItXOhmTGNZoycIBPzEQVWWLoSxPx57sYDR3N64Gg0c9JMgSP+wNExEgG7B3xtWNNn08zYTF55FkBvGK+5K5fjjxXdc6gmoKXftaBUoK9u2IRBOHhrzDpr6dOVL/tVYaujjbHFy/ejQg/wyKwnRBZ95CEB5q/RwY1pZ6mP7WP8SMkhdyeBuCpBpS6eNprrL8xSmi3s7NHRHob4WfTsU8F5vUFl7znlXktyuJiIlqyu1rbaX8RRBbZWZqjI8XpEBR1EusaPGoPvo1Hu9O9IC1lcFzAvOGtGMHwsXod4+2AxtWCQguJ/P6SnmqcIFRXWzFs9BgO5z7gRNEf7ZjR5UCLL6bjLmzOsDERO86ETm/iADaqsNbeMTU+p3xHmKBRspMMcUvHO0qDKSVZQ0gDRvqYvIED7C1d2piKCeic0R0hoguuzQ1Kv71ciymTvKoAUiHxBrp3u0RePpQvZouuUi1TWAmlOalYPO6cNjZGnObadoS8EXb4b0JvN9KdDyyi61IyzEYzAwp53D6cAQ+nNYagf4WMDNVuVAGx8BAh99tT0QN1em2BUP6uyE60g6mDfVhZKiL5ER39OvTErY2xooRQz1w9odYVDzgLUacp0jFs4ecqUrC58tC0czdjPuxWGNW/KJyvHQ9Ex2iwxIQXDYy18XoN5qDhWf9ZQMpeQ2OCi8djxJzkhbNTTiZwh3/TKMXXmamuvkhQVZIjHNBVmZLJMa5wd7O+Dsi6kFEW52cGhZlpDXHB9P9sGiOP96d5IPEHq4wNdW/TUTvEhFPBP/6w8XZ9j0fLzfoaOQkWUAOt9OSnMQmNN4HwZMoBgTP0gVAr7mbSFsFHxLRJI1R7KanR3vNTA1yLSwM2fKvq7XazXshxhDR50S6G4loJRENUm+J/OsBkL7o5mbrtWHN6OJ1q0chwN+xRrfVwHAI7dHCREzIFs/2FsaSd9CZqlSkMxGFEtEGInqfiDoSkSFPkj6e7dNjwYfeb+zODk3IvxkXfOZIl8jvdnaOO3c0MgalKR4ld5MCfzwQHnvjYkwXFMg6njkYHsvPz3wfGQXITB9djXU8ur9z3N6cTvEnDobH3r8W5//9vrAErqN5XjkVHSfJ8tLlhLHxK3gfZdH98diwsh26htnUm5BhphgZ6aKpk5HkMVZofJztDQNhgSsywykTWub4eTdCaw9TrFzkezEzzTmPr4M6WGJvTvDiwf3cbrT+hylCO1pV7d8e8kNoRyslP4+Nsqv4/WKM38qFvgN5dsu/9U51ztuVHfxlp2Arcc/vidPDVLh1jT683KWnh3PrQ/tnPIByPZTlmSi/3xOnD0Vg4QdeCPRvXG8SV20fiohoBBE5EJGROm+gg+vdjDJTnXdIeYyZk1tdCGzf+B6/w8Z2y6oOi8I7Wf+iVsGq/dtD1zk5GvIWIvDcZcf6oB6jhzWfKs1toiNsT2xaHbCQk0fq71aXvFHm5aSv9Xbv3p1G/3R+iQKVC6EsTVdFkmWqmODcD13x6cd+GD+6BTJSndG9mx0C2jcWyRwiYgF4A/pwIorlP8AwEFm9mu5gr8Edf//dVueDAy15Z4xg2pZ1HRZFdrHlWAE21gZVV05Gve/Z2uyG+h7L5vmMHNrP7TPOmPNvA/u6bt62IWC6vZ1qCsBhvq2NAWysDDBhdAvtAsF67eHhtHDq5FTknh+JZ49qvIXwGuw9SlJFyMxzBM42Mc3V7reDmhF6jG9tIGZPb3M2NMjqDj/iHKgmELxN+tq56FHJiY7H+DkzZtbkVgsz05z3S/cLZnnO/GJl+4lc19xMF4vmeG8/cyRy+J7skLGXjncbV2tMtXJrQkQf2dtbIbFHcyz5yAfnvu8qIk0OsIQrZUCepAFVvYSLtbUWdGVbUb3RvDYQbwx0z2/na15WHxA80bt0PLL33BmeX/JzfX3igOxouszpd753cjTClZNRGUvn+YxhIHjVbUAf1x9XLGw7B+j16haF1ALxfyxKuSNsHD1bmyExrgk4WBo74jWMG/mamJmm9HQUblZHh0qauRmPJyL+Z4A40mRO2/j92ifTeuuGwGrVYCBOH+6Svnl1hzE2ViobEBdjX+nn3UjEKe18zZ+gSOb38RzfCZqz44D2jcpzL3Tl/6e98oP1/VptQWrf8wixALJ4x0tffNph2o/7O2fmnu2WNHdWm5PdImzROdhK5DZDAi0RH2uP1CRH7N0asqhrmI2wESzcie+6pH+7MyyEZ7G1209OdLyDovTGK+b7vq0JRFtf89Kfz0W99G68F0XRiYhmW1iYPgjv5AIWjM/EHg6CHfNneYocJy8bcgDWxMEQrk2NhHtlSru7GiM40BIjhjQr7pvR9El7PwvOVj9nI1i4o/vCM1AgaxoaZPVYEwiOYYb0c9sPyAyXLfB9h42lvp4O2vmaFw4f1OxSbm6Pv/ZfQZGRXq3WfJq69JcLvW4V3k6FsiIDeJoOPGV7kSpsRv8+wo2J+YWTo5GynW+jZ8EBlnB3bYDFH/mcDw5QeQ0O4TWNJQNxeHenPkA/s+7dbM/wsoIEBhvOCSOazwNIZ+lCn8lsIywbG2DT5/5zUZAchIpUZ5SkWb/oqGqt3oAB3d02rErOWP9pzLacL+MenjqSprh2LgPf7uyujI1yKIuKsLk+dmSLJdu+CIwbNaz5dw3Ui8gzp/yx+2QgDv0zLAuQ6fXJaLpFc2pva22AeTPaDGYBGAhmBLvUoA6Wv4WHWh0NC7E+sfADL07n/S+PJs6ereyTuoQ5D01Jcum1eLZXexTIGgHT9HGwk36fNJecF4kjGIjv94RlsSTTJnl82MCoJkHs4mz0bP/24Eh+xkBwXYktUjm4nxv/9v95SJGlnq4qIGJGBHVQqQbHARxZRnRWGUs7GwPObfRjSbLXBfRn1ZGE9Gxtmo+CFPE3hiXzfSbb2NTkRaQ6A/qINdP/UyDQSX/V0rY7Rg1phkFZrti5Ofj8R7M87w7s64oxPMU/FLFo8Wzv6/xs4ugWyD3bTQDx86moTlMmvK4YmOXKRhJL5njnSjbg4O6wyW+PaynaYxbwye1tWOmPfwFx3GbtYHiawgAAAABJRU5ErkJggg==;" vertex="1" parent="1">
          <mxGeometry x="256.4" y="410.6" width="39.6" height="36" as="geometry" />
        </mxCell>
        <mxCell id="ijF5cBioTtc_Avgv8xnH-13" value="" style="shape=image;verticalLabelPosition=bottom;labelBackgroundColor=#ffffff;verticalAlign=top;aspect=fixed;imageAspect=0;image=data:image/png,iVBORw0KGgoAAAANSUhEUgAAAIAAAAArCAYAAACw5YDmAAAYkklEQVR4Ae1bC3hU1bUO1dpWb1ut1yczeZCQkJlzJgkJBJKZJIq2pa2tr7QKTZiz1977zCQXW3st2vb23rTVr73Xq16VTIIIiChWVKhgeRQFgTx5PxQVba0gV6UKVESQ1+7375kdJkMiSUUv3pLvO985M3P2Pvvs/19r/WvtnbS0j/mvIS3tM+roMeBjftyp7k+GGVBpaQNWX1F85rqKwsGtocA17aFAtCNoOy2VgdCKoH2Oqqo6/WQY56kxnMAZgJW3VY/8QttI/1daK+2RbRXW3I6QdagjFFAdFQHVWRFQ+jpkv9waCkQ3lAXObykv/+Ks6rTTTuAwTnX1Sc+Aqk47raPUuqCj0rq8szJwW0cosHFVKKBWjypRHZcMVe1Bv2oPWonDVp1VRWp1ZaHqCNq72oP2oysrA1esKPelP+/znfFJj/3U8/7OGVDV1actrSo8e+mIwsyWcuvqtlBgNax7dUWBWlkRUO2hgNoU+b56qeEWtebKS9Wq0eVq9ber1Lraq9RGMVZ1VBaojpCtVlUE1NrKAtUWtF9oq7DdjorCwZ3Dh5y7urj4s3/n0D71zZRKG0BEX2GMXcwY+2LyCzU0NHyGc36BlPKicDj8+eTfPpFrANNaZmW3Be3qtlDBvS1B+49rKgs0kCBAe8jusvYN465VB/+6W+1/6w311sJ56t3Nm9SBne+oLbf+m2odnqvag3b8/pCtSbO+qkC1hew32iqs6W3BQO2yiqH5/4hEEEL4hRD3kXBXhJn8JciQAHcAc90Szt15XMhnhYiwTwR0PGRj0D6npTyQ1xIK8Lag3YGYboDXoAP4xAFrh6VvmzFFHdy9SyX/Hdi5U2257edqzbVfU51fLdWewrTDGd5jTUWBWlNRiN82dlTacmVZYSFCzD+KcGSM300kjkg3qhjJg5xHqtLS1AAp5Wcdkg+7kTolI3WKiP+xurr6Cx8rCQB6e0XBdztCgbvag/b6NXDbiOll+aptZPLhU21liPW22sivU3+edI/aOvMBtX3Ww2pn2zLNgYN73lW7165Sf1mxRL3afLdaN+Y7qj2EUBAXhyDAinILXqCLCBurChEe3ugI2dPaQwHeEbIC83NyPvexvvT/ceeM8alE4gMuXMW4PMQ5/w5cf3V19RmMxBIhIwoH43JbTU1N+gkfLmIwJrq9PDCuPRRYgTi9usJWqwD+6HK1tnq0Wl97ldrAvqc28uvVeqdarRv7HR3rO0aVqNYuYsRJse66b6o9r7yk3l6+JCEKLZ0VaB1QEVAtQUs9W+ZXi0bkq1lF2erhgiw1r2SwWjLSp8mwurJAe5vOChu6YXNLyL6xI2gXrw3lnHfCX/4k6JBITCGeIACJQ0yIb4MAVVVVpwshfsGF+z4J+QEj+TS+O2FDXllheVvK7bFtQet/OkP2Wih5uGMo+M5Li9WmaK3aPmuG2tnZot575WUd2z94e4d6//Wtas8Lz6sdTy9UrzbdrdbVXHXUtQdt1XFJoXrhlvHq5d/8h/YaOvYH49a+eES+erIkVz1SlK0eKMhSk6x0dZPny+pm79nqztwL1YN2hnpqWK4mCTxFnIzwGPaL7cFAY2fIvnJple+fTtgknAQd9UYADA3CkHP5a87lXY7DLz0hw0XRBq6+M1Q4sz1o79cpXEXcNcMtw7VvitaovdteSw7nvV6/075crfxaWZcmMGKv8/JSHSJaQ7ZaMtKvZpfkqumFg9TUgix9gACTrXR1i/dsdcNFZ6n6C89UN1xwlro16zw1pzhHewOjF+LZQ6FqDVpbnhmRP/SETMRJ0klPBKiurv74aiWz0tJOe6xk8AQAA/C71HxC1LWVW2pd+Bodv3tFPemHN+fNUZ1fHXGUAEYgQvUHbdVabqmlZX61oDRfPVEyWFs+SGAIMMHzZTX+wrPUb7LPV9PtTDW7OEctKh2iCZCsFxaOGKJmFg16fYo/45L+YDd27NgvNYwf/6We2owhyuCce3r6zXwnpfyyHCeza2rkR4q/NTU1Z0UikcxIJDLQ9I0z5+L+1BCQTIDx48d/DqlgcpuersePd86LRCIWi7I86Iee7tHfgQCT/OkTZhQOUvOG5ep4DEvrIgKAqyzUcX7bg5N1CNiz5UW197VX1d5tW9XeV/+o3n3hOfXWH+arl2//pVpz9eXxEBC0VVu5X7v91tI8hQP9dl42THVUQuXHw8DC0iHq8eIcNQNhIJCpYvkD1cyCLPWH0nwNOiqI5oBeAPCzhuaoKYEM1eT3bosN8VT2+nIpP4Q5r+LCnc24WExC1GBiazjPZ1z+mEjOISFXEMklTIjxyU3r62vPZUJcQ1w+wLlcTCTbiOQKEvJJh9xfOEKUNTQ0HDce19REzne4ez3jbpMQchFx0UJcLuPcfQxjqOU8QMRnpBIAGkApNYBHowFGYg7Gz5gIJ48R18gUiNwKxkQTCbmEuFzFSHYwEk9xzm4bR1SRplT39RgQIGZ5ftzk96rJdrp6sCBLTzDi89ESbhxMpG5aBI67RgvAjXKsFoPrvn+lLvQgM2gpyVGtwwZr4NdcPUo99wOuXrnjNvX6ow+qN+fNVn+6+z9Ve1WR9gaGZMvL/eqZkT719EiferbMp8mnQQ/FwW8L2uqp4Xnq4cJBBnjVbHn7TQDH4ZOhrpFiERfbOJc/Iy7biMvdOr1yowpnzuXGcDiSiUmNRqPFxOVc4vI13RZpmBvVB+5lXL7PuNyIuFxXV92rHnEcWUokniIutxGX+jmmn/h45G6HiQ48h7g8hHtYkggEwYhkzLQh7q4Kh394tiEBPBNj/BYisZlIdo3x6P1iH3F3EyP3vkht7UAQSrc1BMCExvzxA9ewsEeHZitYKNIzkAGCsK0sru61dcPCy+JWvuobIfXSr36qtk6/T705f656Z2WbFofvb9+mDvx1tzpy+LD64J2/qBd/eqP2DCaem7Nx7zh3JopKyA6eHJ6rHiocpMkJkmKMOCfGu32y5akyk3C8M2MagMOYXIBJXO5CSpW41ukVQCUh119/Pb9ACHaZBle4+jfc60brVSRxYHLRVqdmUOckHyCqNoUbPRxYr+u6XycuNxGP36ufz13Fk56Nfsw48HsqAeDGieSyrvuEfE3K8dl4CMKJlPIG6UbfwVjM++lxJZ5hxsmFexAeCKFEDxAEaLbTb77fTjdWpSfYTPQUO0MhPPyuZLCCTkCxxliuAQ+xHcJvU31YvTn/ySRFcPTy8P596rWpzXH3n1QFNH0Y4NE/vMFjxTk6JNxnpXcRE8CbQ39veTdNtbK9xwPe/M6YmEdcagKYScJZAwtrZnILkXxECPE1GkMZjImV+A2Tp62U5POcy9uYiIThshkXz1CCABoY7h4gErfDFSeeOSASGV/EuXhOugAmDnKCZABqm0NiHz4b4DAecyR7gDgBxPIuAnDxZyHqc/GcsBCFjMs1ut+Ed4FXIxLtRHItI6HHb0jgkHwjucw84H5fRlGj37My5vfuN8CbiTafMeEzkKMPy1VLy3w6hncnQkB1XFKkQ8HzP4qotxbMVfvf3tHFgJ2rO9Xqb1Wo9nJ/N4GIPnAgvi8a6dNeB94HKaEZQ/I55veo+6yM/ZOs9Md/ne3JwX4DA/DxzqkE6JpoJrdw7l4bDruDIbAcxzmPEd0hZfSwmXDG3WcYcwsgIquqGk6vvvHGLziO42UsMtYBcRJehXH5Fuc8gLFIKc8UQtwrJEJO3OswErsdks2Ix4xF88JhaZMQdcTlZjzLjAnn4xNAaAI4IvIt1AfiAMOzyN9SJFIeDoczOedZYaIrSIhFjPgHIAkj/jTG1m2+7rG82bOH5c5/pGiQavR5ulxt8uTjGkSYGshUvx2ardW5AVBbslb6lhaBCAkbnO+qVyfeoXZv2qCe/9e6eLXQZAUJoYnwAu8C7XG/ndHNC5lng4SNGvh0XTdYPDL/YEvQWtdWYdf3p0TcEwEYyb1SymCy0iZyRxF39xjrZyTmh113cLcJS3xAO86jAeLypQR4RxwhmvEzVDgX7h5j+VzInSTET8aMiZ6T3BfcsZRyKBdyQ7In6CsBwmH3akbiiLFwEuIHyf0nxjKQc3654/Bra3hNfpoxHNQBUFnrqAisawvZ7wGQBSOGaMEFUWg8gAHDnBGDQYaZRYPUAqMTzIIQQE64+Y5RxQpkgHfo+i4U0LoCwm5aIPNDrD3u8kG4x0sG6wylFUvL8VB0qDVkv7h8ZO7w1Jft7XMqARiJ/UTRMYjTpg0swyHxE1gKFzqe7nC4vAFAhxsaPp96ALwqCDQh6rhw39WWzuVfpJT/TML9dx06YM1cHGEkHj/G8syD09IGMCa+S8LdZjxBXwkAYEGurnZcvMWIpnHufo8oYlVX39ilS5KJrh8NDTC3dMhNEF7GpaMeD5eMcuzcYblaEDYmxV9DApxBBBBlWkGmjtsQbqafo14hvliE75eV+fV9HwY8+o1ZXh1yQC60gf5I1gvIHB4pGvT6VLvvaWAqATgX87rEUAKI+vr6cxm500w8JS73ERebueDPcsGX93yIZ4nLDYzEgYQX2Oe67ijGRQtASQCzTYjo6KN4H3sVjd5yDkeKyuPWfHwCxDWAlDKbhHzKkC0xhgOMxLsOya2M3LXE5QwhRNkxTwUBmvyeCdORe4/I18CbicYZZIBX+D2stSCzRxdtCBEnQ4YGGGkkQAKR0B7C7onieP6O+0yb1DPCALwK2qMtnm/Gg2sUkWYXD9akbLb6VwdIJoAGheS4tLS0bnlxuK7uQsbFvJTJPJIQjxCQPR5wwYmJR+z+gIRgjOTLhgAOiedSiz6pYMATOboOIA+gXV8JgHZMyiBxsRoriWYcSWeEh4PE5XtEckoixT02DYRLBxFg9amTDxDi4SFfp2WTPgREgIq+YOXoD+fe4rshALKN2YlFoGRrNyREjQD6xPSTeH6/CkHJBIAyrq2tLUoFIVwX7okAyMsxgX05DhAXzzmO42Mk/5RMgNpIbbeqX+qz4Z4d7s4g3j8CJPoZUMN5FhaMGPG3E2MFWbsRggv3MHF37k033XSWbpdcBzBg4Ay3/nhJjg4DPZEB4WHW0Gw1Rcfw3i06uc/Ua024wqyuBR9j6QZ0eBCsEqIOkOo1DAEm5nsrUieyt8+pBKipiVip9yJ2My6nxjWAVuV7EBKklFeSlNW9Hdx1r8VBMvpNpFj64KLTEIBzuQ3pZerzkj9DHBIJVAi1oOurB0juA9fXXcculjI6hjNxPxFvI8638zh5dZahxS13v6e1DwjQ6Pfe2Gx5j6QCBAEIkB4qzNIh4BgiBG3t5hEeYOm4NxWo1D7xO+5DbQFiswVFpiTxCOtfXm6pOSW52nP01l+z5T3Y5PN0xgJZeakT0NvnPhLgTBLuzQgBcTcsDxPJ5qTcvrfuu30PbUHEbxW66qhz+8OMu4/2vpVLDeDcvZq4uxXPhfvuKwHgOUA4pKipIg/VydpaHuAcJWbomUQRjNy1+p2QBTRaGWWNlndNs+XdnwoYPoMIOFCKnV+ap9U4yABLBXgGQAAKa4U7Rx5v2qEPAAn3jd8h7JLbGp3xTJlPzRmWq70P2vY0FvQz2U4/PK0gY/3UokGXdZv143zoCwHQBblIA+V7AEKnZSS2My7rUwWjeRxqB0KIYVJKe/To0WbDyoBEerjXeAHicicR/QRlW9MWZ/TLmFtCxDcY8PtKAFgxUWQ41hOwniGE+DYqg8n94zouboXWJOjbYWJX1/tgR+6C0txvPF6csxkpFyy0p8kHKAAAAMP9Iy4newUQAWAiPDxRkqNFI4o60ABYwMH9sHBDGgM8CAHhF087PT0+2zwX5enFI/IPtQbtV1ZVBG5dd2VhVz089aVTP/eVAOFw+GzO5X9JN6pr8iABI/lXzqP13yfKiUQi5yNUQNRxHg0Rid9xLndw4b4u4m5eC6wrrpBnMu7ek+QFYNnvQog5jihjjA2KsmieEGI8IxST+lcIIqrLiUaj5zAS01CeRsGJC7mHuLzVceRQKWU6ESqa7kiMUYvTroKUnK8XsOABVgTty1aGAvuwAQR5NkQg3D7I0Jyw5GRCgAgTNRnSNRGwXoD0D20NuGYxRxMEpeKu/wsI6Ptw/4IR+WpGwaBunsI8x3gPkBFLxSAcMgm9QIXNIaGAWlru27GwPK/Py8F9JQCIA6WMUqoJBbBMTLJDfDsj8SQRPYJSMazJ3IMz4/I2HVvT0tKww5e5bgEJd70p8KAf3Id2ROJNbP9K0hvx73tdC+heCiainNra2nMZd6ebMZhxEkfNX7zAmHzRlILxzISH2etwfqleEIIGeGLY4J8vK4/n2gAQYME6Fydq8iZnN6AYkHBGhQ7WOT2Qpat0SNOMijdkwBkuH9/rBR5sBglkqSb/sYUmPAP9whs8WIjSc56uA6APkAr9IBsB6aYXZm2LfYQ6wLhxwp/qJZI+Ywv2paixc+EeSkxc17oAJlyLqa48H4UevhnW1j21RGyPVDlcPoc+dBtYeqJdcr/mWpNDk0AcNlvCjlkM4uI15P8YL2N1QUZyFcZp+jfPSh4jvtPpIFYVzXoFCDDR8vwY8RmWDzeNCTZLwZh0gIbcW2/aSFQHDVCGDPg80efRXuPJYbm6poACDpQ8zotH5uv+IRZxX2p7FJq0mw9kaK0xb3geNoR27QUAIbXXKB2iy9CJtYJ+pYHEsRwct1hGfPvx8vL45EbzGBePMhKvGmsH+OZAykYk/kRCzqEIHZNVGEJJ6ZQSF78nLrdis6dpb4iElUkuZZvDoNrlQV2IIrEL+T0sFe7aIdGMcCL1ip9YPSZ6tKTMGCvgwn2IhNyMMSX3j2s9Ti5ecog/4Ix3ju6nNGmgARIxG+4W6RfUOCwOVUIcAACLQRCDIAzapAKJzwDTCD7k7loYBjJ6dfUAHuEGOgHPRdgA8WD1AB5eBc9F5gDg4XVMGnjvkP4sB7NLuBDzGBfPkqRxqYrZgJV6hsImom+GSUzDhhHS6Z1sZcQXOCTu5Nz9RqqwS+0Dn+P/8CGuYSQa4xU/t10IdwUX4jEm3B+J+vrcGl6XTyIyhQu3xXHErwzIIEE8nMiniPhSIjrm/wKKpfxsmEdDjMu7iNxFJGQHcdHOuLuQS36XS+6orn0AZoCaAP70mwGCAdS4dYAHgQZR1xKKg4LwgFiPbACCDLt40BZtDIlMP4YMOPdEFICIFUbsCNLxPeHmAT68EKqB8ErwPKkLVNAGMb/3f2M+b8i8S1/OAHPChAnd/uOmL+3MPUjjsMIm5Q8vMt/9PWdd9HEcL8RkantoB6xIpn6Pzw0NDWfU1YUv7Om35O+qqxvOgADkYz98i1saCNBke/4FGzJT1T8sGRYHtw1VD0uERQIgTYSETkB4wGpeauqXTIijpID1xncezUks8Jj4jrBjqo2myGTamb5AGugD1AEafd65E4uyMpJf/NR1/2dgwCTfxen3Wp6GmOXdgBQvlQjakn3xXUJYBkaMh1fQ4SGxZw9uG/v1UM4FYQAYCJRs/RCTWA/AfcbNg0i4RkaAyiOIFPco3b0GvgPwTX7vO41W+kOxQOa4KXnei/v/uqda9DgDtwcuOCtmpxc3W+k/aLK8m0CC+610E2u7wgMAxW8AE7t24LpBBAAJnQAwl5T51O+HD9H7/aHkZxZla1euQ0kiVYQXgTfBfWavH0BODRV4Fo6Y37uvye99uNHv+frkwEDs3O22iNPjS536sv8zgP/zv9fylsR83kiT3zMz5vPsmGKhsne0Mqc9QiJdixd5srtKxYYIIAVEJITjsrL4qh5AxwGSYC8AvMlku2dxCNCnBNJVk8+7sdnnvX1ivueqBPD9f6lTLfo/Aw1Vaac35XoGNvrSg012xp3Nfu+uKfaxOgFkgOVC9UOsmZVExHOQwRwAHuIRFg/h11MWEe8n7nma/N71jb6BbszyBGJ2ercdNP1/m1MtPtIMAADsv59kZ9wZ83u2GLcMwIw4M14BvyFdg2hcUJqn8/+FI/L14o5JH3EvDtMW/UyNbwfb32x55zb5IEo9gaVVacfda/+RXuxU4/7NwF2FmWffne8ZHPN7xjT5vKsnJfL9ZCIYUKH0YeWoK+AMYuC3ZOARVqAzEN9jvvR7YvmZIyDs/r//B3D/Zv0kvBuWOTH/ooxmy3N1zO99IObz7gHIqUQwlp4MOkhgUrkmv3d7k+39eSwwcMSk4kHdVshOwtc+NaTUGUANAV7hDuti7yQr42eNfs8uWH6yYDQeoRvwPu+OZn/6zY1oV3xx9+3JqQ859fnTMQPTMjM/3+j35DRZ3mjM8i5FoQZEgFdIEOJQk9+7clIg/YcThwzMPeXmPx249nuUCA+w6kbrovxJlve/m/2eRY2WZ8p9dvplqDVMKk4z/zXT775PNfiUzQBCBAAHKbDv4FM2/H+I4f4NLke746jgbqoAAAAASUVORK5CYII=;" vertex="1" parent="1">
          <mxGeometry x="495.34" y="397.73" width="77.39" height="26" as="geometry" />
        </mxCell>
        <mxCell id="ijF5cBioTtc_Avgv8xnH-16" value="" style="shape=image;verticalLabelPosition=bottom;labelBackgroundColor=#ffffff;verticalAlign=top;aspect=fixed;imageAspect=0;image=https://pulsar.apache.org/img/pulsar.svg;" vertex="1" parent="1">
          <mxGeometry x="655.35" y="431.6" width="77.59" height="15" as="geometry" />
        </mxCell>
        <mxCell id="ijF5cBioTtc_Avgv8xnH-18" value="" style="shape=image;verticalLabelPosition=bottom;labelBackgroundColor=#ffffff;verticalAlign=top;aspect=fixed;imageAspect=0;image=http://pngimg.com/uploads/mysql/mysql_PNG23.png;" vertex="1" parent="1">
          <mxGeometry x="140" y="403" width="40" height="40" as="geometry" />
        </mxCell>
        <mxCell id="ijF5cBioTtc_Avgv8xnH-20" value="" style="rounded=0;whiteSpace=wrap;html=1;fillColor=#ffe6cc;strokeColor=none;" vertex="1" parent="1">
          <mxGeometry x="50" y="290" width="710" height="60" as="geometry" />
        </mxCell>
        <mxCell id="ijF5cBioTtc_Avgv8xnH-21" value="集群管理" style="rounded=0;whiteSpace=wrap;html=1;strokeColor=none;fillColor=#CCCCCC;" vertex="1" parent="1">
          <mxGeometry x="140.75" y="302" width="70" height="36" as="geometry" />
        </mxCell>
        <mxCell id="ijF5cBioTtc_Avgv8xnH-22" value="任务调度" style="rounded=0;whiteSpace=wrap;html=1;strokeColor=none;fillColor=#CCCCCC;" vertex="1" parent="1">
          <mxGeometry x="229" y="302" width="70" height="36" as="geometry" />
        </mxCell>
        <mxCell id="ijF5cBioTtc_Avgv8xnH-23" value="失败重试" style="rounded=0;whiteSpace=wrap;html=1;strokeColor=none;fillColor=#CCCCCC;" vertex="1" parent="1">
          <mxGeometry x="317" y="302" width="70" height="36" as="geometry" />
        </mxCell>
        <mxCell id="ijF5cBioTtc_Avgv8xnH-24" value="流控" style="rounded=0;whiteSpace=wrap;html=1;strokeColor=none;fillColor=#CCCCCC;" vertex="1" parent="1">
          <mxGeometry x="494" y="302" width="70" height="36" as="geometry" />
        </mxCell>
        <mxCell id="ijF5cBioTtc_Avgv8xnH-25" value="数据源连接管理" style="rounded=0;whiteSpace=wrap;html=1;strokeColor=none;fillColor=#CCCCCC;" vertex="1" parent="1">
          <mxGeometry x="405" y="302" width="70" height="36" as="geometry" />
        </mxCell>
        <mxCell id="ijF5cBioTtc_Avgv8xnH-26" value="资源调整" style="rounded=0;whiteSpace=wrap;html=1;strokeColor=none;fillColor=#CCCCCC;" vertex="1" parent="1">
          <mxGeometry x="582" y="302" width="70" height="36" as="geometry" />
        </mxCell>
        <mxCell id="ijF5cBioTtc_Avgv8xnH-27" value="负载平衡" style="rounded=0;whiteSpace=wrap;html=1;strokeColor=none;fillColor=#CCCCCC;" vertex="1" parent="1">
          <mxGeometry x="670" y="302" width="70" height="36" as="geometry" />
        </mxCell>
        <mxCell id="ijF5cBioTtc_Avgv8xnH-28" value="数据集成" style="rounded=0;whiteSpace=wrap;html=1;strokeColor=none;" vertex="1" parent="1">
          <mxGeometry x="140" y="210" width="65" height="60" as="geometry" />
        </mxCell>
        <mxCell id="ijF5cBioTtc_Avgv8xnH-29" value="数据同步" style="rounded=0;whiteSpace=wrap;html=1;strokeColor=none;" vertex="1" parent="1">
          <mxGeometry x="218" y="210" width="65" height="60" as="geometry" />
        </mxCell>
        <mxCell id="ijF5cBioTtc_Avgv8xnH-30" value="数据迁移" style="rounded=0;whiteSpace=wrap;html=1;strokeColor=none;" vertex="1" parent="1">
          <mxGeometry x="296" y="210" width="65" height="60" as="geometry" />
        </mxCell>
        <mxCell id="ijF5cBioTtc_Avgv8xnH-31" value="数据采集" style="rounded=0;whiteSpace=wrap;html=1;strokeColor=none;" vertex="1" parent="1">
          <mxGeometry x="374" y="210" width="65" height="60" as="geometry" />
        </mxCell>
        <mxCell id="ijF5cBioTtc_Avgv8xnH-32" value="数据转换" style="rounded=0;whiteSpace=wrap;html=1;strokeColor=none;" vertex="1" parent="1">
          <mxGeometry x="451" y="210" width="65" height="60" as="geometry" />
        </mxCell>
        <mxCell id="ijF5cBioTtc_Avgv8xnH-33" value="数据清洗" style="rounded=0;whiteSpace=wrap;html=1;strokeColor=none;" vertex="1" parent="1">
          <mxGeometry x="529" y="210" width="65" height="60" as="geometry" />
        </mxCell>
        <mxCell id="ijF5cBioTtc_Avgv8xnH-34" value="数据合并" style="rounded=0;whiteSpace=wrap;html=1;strokeColor=none;" vertex="1" parent="1">
          <mxGeometry x="607" y="210" width="65" height="60" as="geometry" />
        </mxCell>
        <mxCell id="ijF5cBioTtc_Avgv8xnH-36" value="数据入仓" style="rounded=0;whiteSpace=wrap;html=1;strokeColor=none;" vertex="1" parent="1">
          <mxGeometry x="685" y="210" width="65" height="60" as="geometry" />
        </mxCell>
        <mxCell id="ijF5cBioTtc_Avgv8xnH-37" value="Web API" style="rounded=0;whiteSpace=wrap;html=1;strokeColor=none;" vertex="1" parent="1">
          <mxGeometry x="140" y="149" width="120" height="30" as="geometry" />
        </mxCell>
        <mxCell id="ijF5cBioTtc_Avgv8xnH-38" value="Restful API" style="rounded=0;whiteSpace=wrap;html=1;strokeColor=none;" vertex="1" parent="1">
          <mxGeometry x="268.5" y="149" width="71.5" height="30" as="geometry" />
        </mxCell>
        <mxCell id="ijF5cBioTtc_Avgv8xnH-39" value="Client SDK" style="rounded=0;whiteSpace=wrap;html=1;strokeColor=none;" vertex="1" parent="1">
          <mxGeometry x="354" y="149" width="76" height="30" as="geometry" />
        </mxCell>
        <mxCell id="ijF5cBioTtc_Avgv8xnH-40" value="猛犸 Dispatcher tools" style="rounded=0;whiteSpace=wrap;html=1;strokeColor=none;" vertex="1" parent="1">
          <mxGeometry x="550" y="149" width="200" height="30" as="geometry" />
        </mxCell>
        <mxCell id="ijF5cBioTtc_Avgv8xnH-41" value="Web UI" style="rounded=0;whiteSpace=wrap;html=1;fillColor=#f5f5f5;fontColor=#333333;strokeColor=none;" vertex="1" parent="1">
          <mxGeometry x="140.75" y="90" width="120" height="30" as="geometry" />
        </mxCell>
        <mxCell id="ijF5cBioTtc_Avgv8xnH-43" value="CRM、千寻、Atom、网易易数、。。。" style="rounded=0;whiteSpace=wrap;html=1;fillColor=#f5f5f5;fontColor=#333333;strokeColor=none;" vertex="1" parent="1">
          <mxGeometry x="269.25" y="90" width="480.75" height="30" as="geometry" />
        </mxCell>
        <mxCell id="ijF5cBioTtc_Avgv8xnH-44" value="ds Connector" style="rounded=0;whiteSpace=wrap;html=1;strokeColor=none;" vertex="1" parent="1">
          <mxGeometry x="440" y="149" width="100" height="30" as="geometry" />
        </mxCell>
        <mxCell id="ijF5cBioTtc_Avgv8xnH-47" value="应用层" style="text;html=1;strokeColor=none;fillColor=none;align=center;verticalAlign=middle;whiteSpace=wrap;rounded=0;fontSize=14;fontStyle=1" vertex="1" parent="1">
          <mxGeometry x="60.75" y="95" width="45" height="20" as="geometry" />
        </mxCell>
        <mxCell id="ijF5cBioTtc_Avgv8xnH-49" value="接入层" style="text;html=1;strokeColor=none;fillColor=none;align=center;verticalAlign=middle;whiteSpace=wrap;rounded=0;fontSize=14;fontStyle=1" vertex="1" parent="1">
          <mxGeometry x="60.75" y="154" width="45" height="20" as="geometry" />
        </mxCell>
        <mxCell id="ijF5cBioTtc_Avgv8xnH-51" value="功能层" style="text;html=1;strokeColor=none;fillColor=none;align=center;verticalAlign=middle;whiteSpace=wrap;rounded=0;fontSize=14;fontStyle=1" vertex="1" parent="1">
          <mxGeometry x="60.75" y="230" width="45" height="20" as="geometry" />
        </mxCell>
        <mxCell id="ijF5cBioTtc_Avgv8xnH-53" value="管理层" style="text;html=1;strokeColor=none;fillColor=none;align=center;verticalAlign=middle;whiteSpace=wrap;rounded=0;fontSize=14;fontStyle=1" vertex="1" parent="1">
          <mxGeometry x="60.75" y="310" width="45" height="20" as="geometry" />
        </mxCell>
        <mxCell id="ijF5cBioTtc_Avgv8xnH-54" value="资源层" style="text;html=1;strokeColor=none;fillColor=none;align=center;verticalAlign=middle;whiteSpace=wrap;rounded=0;fontSize=14;fontStyle=1" vertex="1" parent="1">
          <mxGeometry x="60.75" y="407" width="45" height="20" as="geometry" />
        </mxCell>
        <mxCell id="ijF5cBioTtc_Avgv8xnH-55" value="" style="rounded=0;whiteSpace=wrap;html=1;fillColor=#fff2cc;strokeColor=none;" vertex="1" parent="1">
          <mxGeometry x="770" y="80" width="110" height="390" as="geometry" />
        </mxCell>
        <mxCell id="ijF5cBioTtc_Avgv8xnH-56" value="指标收集" style="rounded=0;whiteSpace=wrap;html=1;strokeColor=none;" vertex="1" parent="1">
          <mxGeometry x="785" y="100" width="65" height="70" as="geometry" />
        </mxCell>
        <mxCell id="ijF5cBioTtc_Avgv8xnH-57" value="血缘推送" style="rounded=0;whiteSpace=wrap;html=1;strokeColor=none;" vertex="1" parent="1">
          <mxGeometry x="785" y="194" width="65" height="70" as="geometry" />
        </mxCell>
        <mxCell id="ijF5cBioTtc_Avgv8xnH-58" value="监控报警" style="rounded=0;whiteSpace=wrap;html=1;strokeColor=none;" vertex="1" parent="1">
          <mxGeometry x="785" y="288" width="65" height="70" as="geometry" />
        </mxCell>
        <mxCell id="ijF5cBioTtc_Avgv8xnH-59" value="权限控制" style="rounded=0;whiteSpace=wrap;html=1;strokeColor=none;" vertex="1" parent="1">
          <mxGeometry x="785" y="382" width="65" height="70" as="geometry" />
        </mxCell>
        <mxCell id="ijF5cBioTtc_Avgv8xnH-60" value="性能管理和监控层" style="text;strokeColor=none;fillColor=none;align=center;verticalAlign=middle;rounded=0;whiteSpace=wrap;html=1;labelBackgroundColor=none;labelBorderColor=none;fontSize=14;fontStyle=1" vertex="1" parent="1">
          <mxGeometry x="860" y="154.5" width="10" height="241" as="geometry" />
        </mxCell>
        <mxCell id="ijF5cBioTtc_Avgv8xnH-62" value="" style="shape=image;verticalLabelPosition=bottom;labelBackgroundColor=#ffffff;verticalAlign=top;aspect=fixed;imageAspect=0;image=https://svn.apache.org/repos/asf/kafka/site/logos/kafka-logo-wide.png;" vertex="1" parent="1">
          <mxGeometry x="607" y="390" width="68.13" height="35.77" as="geometry" />
        </mxCell>
        <mxCell id="ijF5cBioTtc_Avgv8xnH-64" value="" style="shape=flexArrow;endArrow=classic;startArrow=classic;html=1;fontSize=14;width=8;endSize=4.33;endWidth=14;startSize=4.33;startWidth=14;strokeColor=#1F1F1F;" edge="1" parent="1">
          <mxGeometry width="50" height="50" relative="1" as="geometry">
            <mxPoint x="880" y="269" as="sourcePoint" />
            <mxPoint x="920" y="269" as="targetPoint" />
          </mxGeometry>
        </mxCell>
      </root>
    </mxGraphModel>
  </diagram>
</mxfile>
